<svg width="100" height="46" viewBox="0 0 100 46" fill="none" xmlns="http://www.w3.org/2000/svg">
<g clip-path="url(#clip0_1100_7165)">
<path d="M99.5972 6.01172H0.278503V40.0413H99.5972V6.01172Z" fill="#C22821"/>
<path d="M72.7291 46.0001H72.7813C75.2797 46.0135 77.7654 45.6433 80.1515 44.9026C82.7482 44.0158 84.9869 42.3099 86.5307 40.0413C88.9352 36.5393 91.131 29.7432 91.1832 23.0001C91.0788 16.2584 88.9359 9.46165 86.5307 5.95888C84.9844 3.71525 82.7718 2.01463 80.2058 1.09762C77.7824 0.36041 75.2622 -0.00953547 72.7291 0.000104145C70.1962 -0.0132373 67.6759 0.356791 65.2538 1.09762C62.6726 1.98645 60.4519 3.69325 58.9289 5.95888C56.5244 9.46093 54.3287 16.257 54.2765 23.0001C54.3808 29.7418 56.5237 36.5386 58.9289 40.0413C60.4752 42.285 62.6879 43.9856 65.2538 44.9026C67.6589 45.6397 70.1614 46.0097 72.6769 46.0001H72.7291Z" fill="#6E6D5E"/>
<path d="M89.821 23C89.7948 27.9929 88.7823 32.9313 86.8417 37.5316C85.1693 41.2954 82.6596 43.5955 78.9481 44.5886C76.8997 45.1193 74.7914 45.3829 72.6754 45.373C70.5597 45.3796 68.4517 45.116 66.4028 44.5886C62.6912 43.5955 60.1823 41.2954 58.5092 37.5316C56.5932 32.9237 55.5817 27.9902 55.5298 23C55.556 18.0072 56.5686 13.0688 58.5092 8.46845C60.1816 4.70471 62.6912 2.40456 66.4028 1.41143C68.452 0.883969 70.5602 0.620385 72.6762 0.627077C74.7912 0.623837 76.8983 0.887368 78.9474 1.41143C82.6589 2.40456 85.1678 4.70471 86.8409 8.46845C88.7572 13.0763 89.7689 18.0099 89.821 23Z" fill="white"/>
<path d="M72.7806 6.06396C74.5272 6.07376 76.2657 6.30195 77.9557 6.74321C78.8059 6.98403 79.5929 7.40842 80.2612 7.98645C80.9296 8.56449 81.463 9.28209 81.8238 10.0887C83.5793 14.1652 84.4692 18.5618 84.4371 23.0001C84.4692 27.4384 83.5793 31.835 81.8238 35.9115C81.4558 36.7133 80.9201 37.4269 80.2528 38.004C79.5855 38.5811 78.8022 39.0084 77.9557 39.2569C76.2657 39.6982 74.5272 39.9264 72.7806 39.9362H72.7284C70.9818 39.9264 69.2432 39.6982 67.5532 39.2569C66.6989 39.0251 65.9076 38.604 65.238 38.0249C64.5684 37.4458 64.0377 36.7235 63.6851 35.9115C61.9296 31.835 61.0397 27.4384 61.0718 23.0001C61.0397 18.5618 61.9296 14.1652 63.6851 10.0887C64.0531 9.28685 64.5888 8.57329 65.2561 7.99617C65.9234 7.41904 66.7067 6.99178 67.5532 6.74321C69.2432 6.30195 70.9818 6.07376 72.7284 6.06396H72.7806Z" fill="#6E6D5E"/>
<path d="M75.2902 12.5454C75.1741 12.3783 75.0693 12.2037 74.9763 12.0227L75.2902 12.5454Z" fill="white"/>
<path d="M69.9585 22.1113H64.1041V23.8366H69.9585V22.1113Z" fill="white"/>
<path d="M68.6515 36.8524C68.5586 36.6519 68.4885 36.4415 68.4427 36.2253H71.7882C71.7839 36.4665 71.7196 36.7027 71.6009 36.9127C71.4823 37.1227 71.3132 37.2998 71.1089 37.428C70.8472 37.5983 70.5457 37.6975 70.234 37.7158C69.9223 37.7341 69.6113 37.6709 69.3314 37.5324C69.0332 37.3914 68.7932 37.1513 68.6522 36.8531" fill="white"/>
<path d="M72.3108 35.4931H70.5333V34.6565H72.363L72.9379 33.9773C73.1996 34.2912 73.2517 34.3397 73.5127 34.6565H75.2902V35.4931H73.4605V37.5837H72.3108V35.4931Z" fill="white"/>
<path d="M72.5196 32.9321C72.882 32.8277 73.4083 32.6182 73.5127 32.2529C73.4605 31.678 73.8752 31.2597 74.1398 30.7893C74.2047 30.7209 74.249 30.6355 74.2675 30.543C74.286 30.4505 74.2779 30.3547 74.2442 30.2666C74.5445 30.3003 74.8299 30.4155 75.0695 30.5998C75.309 30.784 75.4937 31.0303 75.6034 31.3119C75.7123 31.5946 75.7503 31.8998 75.7139 32.2006C75.6775 32.5014 75.5679 32.7886 75.3946 33.0372C75.1949 33.3093 74.9211 33.518 74.6058 33.6385C74.2906 33.759 73.9473 33.786 73.6171 33.7165C73.164 33.606 72.7709 33.325 72.5196 32.9321Z" fill="white"/>
<path d="M68.181 25.4575C68.0122 25.3713 67.8271 25.322 67.6378 25.313C67.4486 25.304 67.2596 25.3355 67.0835 25.4053C66.9181 25.4676 66.7726 25.5733 66.6622 25.7113C66.5519 25.8494 66.4808 26.0146 66.4564 26.1896V28.6456C66.4564 28.8022 66.352 28.9073 66.1425 28.9073C65.933 28.9073 65.8286 28.8029 65.8286 28.6456V26.1367C65.8374 26.0033 65.8186 25.8694 65.7736 25.7435C65.7286 25.6176 65.6583 25.5022 65.5669 25.4045L64.2621 25.8228L64.1577 25.875C64.4716 26.1367 64.6282 26.1367 64.6804 26.5021V29.8475L64.7326 29.9519L64.7848 30.0563L64.837 30.1607C64.9918 30.3419 65.1842 30.4873 65.4009 30.5866C65.6177 30.6858 65.8534 30.7367 66.0918 30.7355C66.4433 30.7676 66.7949 30.675 67.0849 30.4738C67.6076 30.0556 67.5032 29.3241 67.5032 28.2781C67.5032 27.9642 67.5032 27.8076 67.712 27.651C67.7953 27.5947 67.8894 27.5563 67.9884 27.5384C68.0874 27.5204 68.189 27.5232 68.2868 27.5467C68.4526 27.5941 68.6109 27.6643 68.7573 27.7554C68.7051 26.813 68.7573 25.717 68.1824 25.4553" fill="white"/>
<path d="M80.1514 29.43C79.2091 28.4876 77.5903 27.2343 77.433 26.6594C77.3184 26.2516 77.283 25.8257 77.3286 25.4046C77.5903 25.1958 77.8513 24.9863 78.1652 24.7253C78.1652 25.3524 78.0608 26.0302 78.374 26.4506L80.5168 28.5935C80.6645 28.7188 80.7728 28.8842 80.8285 29.0697C80.8842 29.2552 80.8849 29.4529 80.8307 29.6388C80.7263 29.7954 80.6219 30.0012 80.5168 30.1615C80.5114 30.0208 80.4764 29.8828 80.4139 29.7566C80.3514 29.6304 80.263 29.5189 80.1543 29.4293" fill="white"/>
<path d="M74.8197 24.7253H76.545V29.7439H74.8197V24.7253Z" fill="white"/>
<path d="M78.6357 25.1958C78.7791 25.0262 78.9365 24.8688 79.1061 24.7253L79.5244 25.248V26.6594C80.1515 26.3455 79.9949 25.5097 79.9949 24.7746C80.3573 25.0885 80.5175 25.2451 80.8836 25.559C81.0924 26.3955 80.5697 26.9182 80.1514 27.4931L78.6357 26.0302V25.1958Z" fill="white"/>
<path d="M79.9949 21.3275L80.2566 20.3852L80.9887 20.2808V17.8777C80.727 17.9299 80.5704 17.9299 80.3617 17.9821V16.2046C79.9992 16.309 79.5773 16.4134 79.159 16.5185V19.4979C79.159 19.6544 78.9503 19.7066 78.8974 19.7066H78.8452C78.6886 19.7066 78.5313 19.6023 78.5313 19.4979V16.6229L77.3286 16.7794V17.9821C76.8555 18.8267 76.3136 19.631 75.7085 20.3866C76.3355 20.4388 76.3877 20.4388 77.0133 20.491L77.4316 21.3275H79.9927H79.9949Z" fill="white"/>
<path d="M66.4557 20.7527C66.4557 19.9683 66.4035 19.4478 66.4035 18.662C66.6473 18.6506 66.8875 18.7244 67.0827 18.8708C67.0305 19.8639 67.0306 19.8639 67.0306 20.9093H66.5079L66.4557 20.7527Z" fill="white"/>
<path d="M66.3513 16.2046C66.2469 15.4202 66.1947 15.368 66.1425 14.7932H65.6721V14.2705H67.8678V14.7932H67.3452L67.1364 16.6228C66.8862 16.4633 66.6232 16.3234 66.3513 16.2046Z" fill="white"/>
<path d="M66.2469 13.9046C65.9231 13.4779 65.6988 12.9843 65.5903 12.4598C65.4818 11.9352 65.4919 11.3931 65.6199 10.873C65.6747 11.0647 65.7745 11.2406 65.9109 11.3861C66.0473 11.5316 66.2164 11.6425 66.4042 11.7096C66.352 11.5008 66.1955 11.2913 66.1425 11.0825C66.0554 10.854 66.0195 10.6091 66.0376 10.3652C66.0556 10.1213 66.1271 9.8843 66.2469 9.6711C66.4351 9.40624 66.7144 9.22014 67.0313 9.14844C66.9006 9.52054 66.9006 9.92604 67.0313 10.2981C67.1628 10.2066 67.2843 10.1014 67.3937 9.98426C67.4459 9.93207 67.4981 9.93207 67.5503 9.87987C67.9472 10.5385 68.0955 11.3173 67.9686 12.0756L67.8642 12.3895C67.812 11.8669 67.7598 11.6574 67.3937 11.4471C67.3415 11.761 67.5503 11.9698 67.6025 12.3359C67.6964 12.6048 67.7121 12.8948 67.648 13.1723C67.5838 13.4498 67.4424 13.7034 67.2401 13.9039L66.2469 13.9046Z" fill="white"/>
<path d="M75.2902 12.5454L74.5581 13.3819L74.1405 12.9651C74.503 12.5468 74.5588 12.4946 75.0292 12.0227" fill="white"/>
<path d="M76.2833 10.5099C76.4399 9.77772 76.4921 8.99409 77.3286 8.6802C77.4865 8.62695 77.6551 8.61337 77.8194 8.64068C77.9838 8.66799 78.1389 8.73534 78.271 8.83679C78.4244 8.95873 78.5398 9.12175 78.604 9.30683C78.6682 9.49192 78.6784 9.69143 78.6335 9.88211C78.4247 10.7187 77.4838 10.8752 76.6994 11.0847L76.2833 10.5099Z" fill="white"/>
<path d="M81.4584 22.1113V23.8366L75.6041 23.7844V22.1113H81.4584Z" fill="white"/>
<path d="M67.2923 33.5591C67.0306 32.4616 68.3376 32.0955 68.6515 31.2067C68.9132 29.6909 68.9654 28.123 70.0107 26.9203C70.0482 24.7669 70.9086 22.7095 72.4152 21.1703C72.3242 20.6868 72.1841 20.2139 71.9969 19.7589C71.8999 19.764 71.8029 19.748 71.7127 19.712C71.6224 19.6759 71.5411 19.6207 71.4743 19.5502C71.4028 19.4732 71.3475 19.3826 71.3117 19.2839C71.2758 19.1851 71.2601 19.0802 71.2655 18.9753C70.7376 19.7313 70.0619 20.3725 69.2792 20.8601C69.1227 20.9123 68.9654 20.7557 68.7044 20.5462C67.8156 19.814 67.6591 18.1938 66.2477 18.246C65.6206 18.0373 65.6206 17.3037 65.5155 16.7302C65.651 16.6577 65.8007 16.6155 65.9541 16.6065C66.1076 16.5974 66.2612 16.6219 66.4042 16.6781C67.293 17.1485 67.8678 18.1417 68.6515 18.7687C68.8602 18.9253 69.0697 19.187 69.2785 19.2392C69.8243 18.8046 70.2851 18.2731 70.6377 17.6712C70.7606 17.4815 70.9321 17.3281 71.1342 17.227C71.3364 17.126 71.5619 17.0808 71.7874 17.0963L72.1013 16.7339L71.9447 15.7407C71.6171 15.3196 71.3366 14.8638 71.1082 14.3815C71.1121 14.0853 71.1851 13.7941 71.3212 13.5309C71.4574 13.2678 71.653 13.04 71.8926 12.8657C72.255 12.657 72.5718 13.1796 72.8857 12.8135C72.9868 12.7863 73.0933 12.7864 73.1943 12.814C73.2953 12.8415 73.3872 12.8954 73.4605 12.9701C73.7308 13.3416 73.9098 13.7715 73.9832 14.225C73.8233 14.6732 73.6312 15.1093 73.4083 15.5298C73.3561 15.6342 73.2518 15.6342 73.1466 15.7386C73.1843 15.9403 73.2548 16.1345 73.3554 16.3134C73.5256 16.3593 73.7022 16.3769 73.8781 16.3656C73.985 16.1416 74.1462 15.9477 74.3469 15.8016C74.5477 15.6556 74.7817 15.5619 75.0278 15.5291L76.0209 14.902C75.8643 14.1699 76.3348 13.4906 76.0731 12.7592C75.8363 12.6147 75.6371 12.4162 75.4917 12.18C75.3463 11.9438 75.2589 11.6765 75.2366 11.4C75.3405 11.0786 75.4997 10.7779 75.707 10.5112L75.7592 10.5634C76.3058 11.1457 76.7166 11.8419 76.9619 12.6019C77.1019 13.606 77.1369 14.622 77.0662 15.6335C76.5291 16.1107 75.9315 16.515 75.2888 16.8361L74.8705 17.6726C74.8183 18.5614 74.5566 19.345 74.4522 20.1816C74.8147 21.2269 75.2888 22.5861 74.9227 23.527C74.6334 24.0258 74.2188 24.4403 73.7201 24.7296L72.7269 25.514C73.72 26.6115 73.4591 27.8663 73.5113 29.4865C73.5113 29.849 74.1905 30.2187 73.8252 30.6362C73.5113 31.1067 73.0408 31.525 73.093 32.152C72.9322 32.3566 72.7251 32.52 72.4888 32.629C72.2525 32.738 71.9938 32.7895 71.7338 32.7791C71.6816 32.7791 71.5772 32.7269 71.5772 32.6747C71.6769 32.4207 71.7982 32.1758 71.9397 31.9425C72.3021 31.4199 72.1484 30.6377 72.5667 30.1128C72.1158 28.9614 71.766 27.7729 71.5214 26.5608V26.5086C71.4049 26.7628 71.3447 27.0391 71.3447 27.3187C71.3447 27.5983 71.4049 27.8746 71.5214 28.1288C70.5283 29.3836 69.4829 30.5333 69.4829 32.2064C68.9984 32.9077 68.5625 33.6413 68.1781 34.4021C68.0737 34.5065 67.8642 34.4021 67.7598 34.35C67.5495 34.1246 67.3892 33.8573 67.2894 33.5656" fill="white"/>
<path d="M78.0608 28.228C79.0032 29.1704 80.6219 30.4238 80.7792 30.9986C80.8938 31.4064 80.9293 31.8323 80.8836 32.2534C80.6219 32.4622 80.361 32.6717 80.0471 32.9327C80.0471 32.3056 80.1515 31.6278 79.8383 31.2074L77.6918 29.0638C77.5441 28.9385 77.4359 28.7731 77.3802 28.5876C77.3245 28.4021 77.3237 28.2045 77.378 28.0185C77.4823 27.8619 77.5867 27.6561 77.6918 27.4958C77.6972 27.6365 77.7323 27.7745 77.7947 27.9007C77.8572 28.0269 77.9457 28.1384 78.0543 28.228" fill="white"/>
<path d="M79.5766 32.4616C79.4331 32.6312 79.2758 32.7886 79.1061 32.932L78.6878 32.4094V30.998C78.0608 31.3118 78.2174 32.1477 78.2174 32.8827C77.8549 32.5688 77.6947 32.4123 77.3286 32.0984C77.1199 31.2618 77.6425 30.7392 78.0608 30.1643L79.5766 31.6279V32.4616Z" fill="white"/>
<path d="M77.0677 36.8524C77.1606 36.6519 77.2306 36.4415 77.2764 36.2253H73.931C73.9352 36.4665 73.9996 36.7027 74.1182 36.9127C74.2368 37.1227 74.4059 37.2998 74.6102 37.428C74.8719 37.5983 75.1734 37.6975 75.4851 37.7158C75.7968 37.7341 76.1079 37.6709 76.3877 37.5324C76.6859 37.3914 76.926 37.1513 77.0669 36.8531" fill="white"/>
<path d="M73.3039 44.1703C73.3039 43.2279 74.1927 42.7589 74.7675 42.1318C74.8496 42.0413 74.9032 41.9287 74.9218 41.8079C74.9403 41.6871 74.923 41.5636 74.8719 41.4526C74.8197 41.296 74.7153 41.2438 74.558 41.1909C74.4687 41.1675 74.3752 41.1647 74.2847 41.1828C74.1941 41.2009 74.1088 41.2394 74.0354 41.2953C73.9596 41.38 73.902 41.4794 73.8661 41.5872C73.8302 41.6951 73.8168 41.8091 73.8266 41.9223L73.1995 41.9745C73.1738 41.8079 73.1838 41.6377 73.2289 41.4752C73.274 41.3127 73.3532 41.1617 73.4612 41.0322C73.6198 40.8825 73.811 40.7718 74.0197 40.7089C74.2285 40.646 74.449 40.6325 74.6639 40.6697C74.8532 40.6898 75.0342 40.758 75.1897 40.8677C75.3453 40.9775 75.4702 41.1252 75.5526 41.2967C75.6443 41.5001 75.6782 41.7248 75.6506 41.9461C75.623 42.1675 75.5349 42.377 75.396 42.5516C75.0336 42.9698 74.5073 43.1786 74.1934 43.6491L75.8136 43.5447C75.8025 43.7378 75.8201 43.9316 75.8658 44.1196L73.3039 44.1703Z" fill="#6E6D5E"/>
<path d="M67.6061 40.1456L66.5608 43.3867L65.8816 43.1779L66.6137 40.9822V40.9314C66.3429 40.8205 66.063 40.733 65.7772 40.6697L65.9338 40.2514C66.0935 40.3246 66.2699 40.3535 66.4446 40.3351C66.6193 40.3167 66.7859 40.2518 66.9269 40.1471C66.9829 40.0788 67.0545 40.0251 67.1357 39.9905L67.6061 40.1456Z" fill="#6E6D5E"/>
<path d="M79.5244 42.6022C79.4024 42.7023 79.2595 42.7737 79.1061 42.811C78.9537 42.8633 78.7881 42.8633 78.6356 42.811C78.5595 42.778 78.4917 42.7283 78.4373 42.6656C78.383 42.6028 78.3435 42.5287 78.3218 42.4485C78.2874 42.3432 78.2893 42.2293 78.3271 42.1252C78.365 42.021 78.4366 41.9325 78.5305 41.8737L78.8444 41.7171C78.9015 41.6918 78.9632 41.6787 79.0256 41.6787C79.0881 41.6787 79.1498 41.6918 79.2069 41.7171C79.4156 41.7693 79.6252 41.9259 79.6252 42.1354C79.6587 42.2149 79.6667 42.303 79.648 42.3873C79.6293 42.4716 79.5848 42.5479 79.5208 42.6058M78.1652 41.035C78.1098 40.956 78.0846 40.8599 78.0942 40.7639C78.1038 40.668 78.1475 40.5787 78.2174 40.5123C78.2566 40.4666 78.3046 40.4292 78.3585 40.4023C78.4124 40.3754 78.4711 40.3596 78.5313 40.3557C78.5883 40.3304 78.6501 40.3173 78.7125 40.3173C78.7749 40.3173 78.8367 40.3304 78.8937 40.3557C78.9843 40.382 79.0639 40.437 79.1205 40.5124C79.1772 40.5879 79.2077 40.6797 79.2076 40.774C79.2038 40.8341 79.1879 40.8928 79.161 40.9468C79.1341 41.0007 79.0967 41.0486 79.051 41.0879L78.7371 41.2445C78.6801 41.2698 78.6183 41.2829 78.5559 41.2829C78.4935 41.2829 78.4317 41.2698 78.3747 41.2445C78.2815 41.2034 78.207 41.1289 78.1659 41.0357M80.3617 41.9244C80.3267 41.7658 80.2503 41.6193 80.1401 41.4999C80.0299 41.3806 79.89 41.2927 79.7346 41.2452L79.5258 41.193C79.6461 41.117 79.7404 41.0064 79.7965 40.8756C79.8525 40.7449 79.8676 40.6003 79.8397 40.4608C79.7988 40.3127 79.7262 40.1753 79.6269 40.058C79.5277 39.9408 79.4041 39.8464 79.2649 39.7816C78.9738 39.703 78.6672 39.703 78.3761 39.7816C78.0771 39.8347 77.8025 39.9811 77.5918 40.1999C77.4847 40.3075 77.4088 40.4421 77.372 40.5893C77.3352 40.7366 77.3391 40.8911 77.383 41.0364C77.4229 41.1764 77.5041 41.3012 77.616 41.3944C77.7278 41.4876 77.8651 41.545 78.01 41.5591L77.8535 41.7156C77.7348 41.8266 77.6517 41.9702 77.6145 42.1284C77.5774 42.2866 77.5879 42.4522 77.6447 42.6044C77.6917 42.78 77.7841 42.9401 77.9126 43.0686C78.0412 43.1971 78.2013 43.2895 78.3769 43.3365C78.6708 43.3889 78.9717 43.3889 79.2656 43.3365C79.5647 43.2834 79.8392 43.137 80.05 42.9183C80.1865 42.7961 80.2877 42.6394 80.3429 42.4647C80.3981 42.29 80.4053 42.1036 80.3638 41.9251" fill="#6E6D5E"/>
<path d="M70.6899 43.491C70.5434 43.562 70.3823 43.5978 70.2194 43.5954C70.065 43.5996 69.9149 43.5435 69.8012 43.4388C69.7333 43.393 69.6784 43.3304 69.6418 43.2571C69.6053 43.1838 69.5882 43.1023 69.5924 43.0205C69.6009 42.9091 69.639 42.8019 69.7027 42.71C69.7664 42.6182 69.8534 42.5449 69.9548 42.4979C70.0698 42.4518 70.194 42.4339 70.3173 42.4457C70.445 42.4493 70.5697 42.4852 70.6798 42.5501C70.7758 42.599 70.8562 42.6739 70.9117 42.7664C70.9672 42.8588 70.9956 42.9649 70.9936 43.0727C70.9808 43.1633 70.9453 43.2491 70.8905 43.3222C70.8356 43.3953 70.7631 43.4534 70.6798 43.491M69.791 41.6062C69.7774 41.5298 69.7833 41.4512 69.8084 41.3777C69.8334 41.3042 69.8766 41.2383 69.9341 41.1861C69.9915 41.1339 70.0612 41.0971 70.1367 41.0792C70.2123 41.0612 70.2911 41.0627 70.3659 41.0836C70.4936 41.0872 70.6183 41.1231 70.7283 41.188C70.7979 41.2422 70.8499 41.3158 70.8778 41.3995C70.9056 41.4832 70.9081 41.5733 70.8849 41.6584C70.8459 41.7662 70.7726 41.8582 70.6761 41.9201C70.5612 41.9662 70.4369 41.9841 70.3137 41.9723C70.1872 41.9616 70.064 41.9261 69.9512 41.8679C69.8758 41.7969 69.8216 41.7063 69.7946 41.6062M71.6794 43.1742C71.6985 43.0152 71.6749 42.8539 71.6113 42.7069C71.5476 42.56 71.446 42.4325 71.317 42.3377L71.1604 42.2333C71.3004 42.1933 71.4251 42.1122 71.5184 42.0003C71.6116 41.8885 71.669 41.7512 71.683 41.6062C71.7069 41.4543 71.6852 41.2987 71.6207 41.1591C71.5562 41.0195 71.4518 40.9021 71.3206 40.8219C71.0649 40.673 70.779 40.5835 70.484 40.5602C70.1957 40.5255 69.9037 40.5802 69.6475 40.7168C69.5126 40.7879 69.3985 40.8928 69.316 41.021C69.2336 41.1493 69.1857 41.2967 69.177 41.4489C69.1796 41.596 69.2256 41.7389 69.3094 41.8598C69.3931 41.9807 69.5108 42.0741 69.6475 42.1282L69.4387 42.2326C69.2946 42.3061 69.1741 42.4186 69.091 42.5573C69.0078 42.6959 68.9652 42.8552 68.9682 43.0169C68.9515 43.2022 68.9867 43.3884 69.0697 43.5549C69.1528 43.7213 69.2806 43.8613 69.4387 43.9593C69.6944 44.1082 69.9803 44.1976 70.2753 44.221C70.5787 44.2245 70.8801 44.1714 71.164 44.0644C71.444 43.8446 71.6307 43.5272 71.6867 43.1757" fill="#6E6D5E"/>
<path d="M86.51 9.86898L83.3904 11.2151L83.6804 11.8873L86.8001 10.5412L86.51 9.86898Z" fill="#6E6D5E"/>
<path d="M75.0292 5.12217L74.2449 1.62012L74.977 1.67231C75.1336 2.56105 75.2909 3.50199 75.4475 4.23342C75.7614 3.55418 76.1267 2.61325 76.4406 1.7767L77.1728 1.82889L75.7092 5.12217H75.0292Z" fill="#6E6D5E"/>
<path d="M61.6988 7.10925L60.9145 8.46846L60.2874 8.10601L61.1762 6.59022L60.6542 6.27271L59.4516 8.46846L62.431 10.1408L63.6336 7.94508L63.1631 7.68338L62.2744 9.25137L61.4379 8.7809L62.2222 7.42169L61.6988 7.10925Z" fill="#6E6D5E"/>
<path d="M59.4516 23.1566H58.5092C58.5092 22.4245 58.4048 21.954 58.8717 21.8518C58.9508 21.8156 59.0395 21.8062 59.1244 21.825C59.2093 21.8439 59.2858 21.8899 59.3421 21.9562C59.4987 22.1128 59.4465 22.4267 59.4465 23.1588M57.9829 23.1588H57.1464C57.1464 22.3745 57.042 21.9562 57.5088 21.904C57.7705 21.904 57.8713 21.9562 57.9271 22.1128C57.9898 22.4575 58.0073 22.8089 57.9793 23.1581M59.8641 21.5901C59.7792 21.4201 59.6414 21.2824 59.4715 21.1975C59.3015 21.1127 59.1085 21.0853 58.9217 21.1196C58.7498 21.1357 58.5871 21.2046 58.456 21.3169C58.3249 21.4291 58.2318 21.5793 58.1895 21.7467C58.1516 21.6148 58.0777 21.4962 57.9762 21.4039C57.8747 21.3116 57.7495 21.2493 57.6147 21.224C57.4599 21.1858 57.2971 21.1953 57.1478 21.2514C56.9985 21.3074 56.8696 21.4073 56.7781 21.5379C56.5694 21.8518 56.6737 23.1059 56.6216 23.8381H60.0192V23.5764C59.967 22.2715 60.0714 22.1128 59.8626 21.5901" fill="#6E6D5E"/>
<path d="M86.8424 12.441L87.365 12.2844L88.0443 14.9506L87.5216 15.1072L87.2599 14.1141L84.5415 14.7933L84.3327 14.1141L87.1034 13.4349L86.8424 12.441Z" fill="#6E6D5E"/>
<path d="M69.6446 5.3318C69.2718 5.41299 68.8823 5.35741 68.5471 5.17522C68.4343 5.10933 68.338 5.01862 68.2655 4.90997C68.1931 4.80132 68.1463 4.67759 68.1288 4.54817L67.7105 2.09072L68.3897 1.98633L68.808 4.44305C68.8352 4.53748 68.8891 4.62199 68.9634 4.68633C69.0376 4.75067 69.129 4.79207 69.2263 4.80551C69.3307 4.8577 69.4351 4.80551 69.5402 4.80551" fill="#6E6D5E"/>
<path d="M69.6446 5.33245C70.0172 5.2852 70.3651 5.1204 70.6377 4.86198C70.7325 4.76815 70.8014 4.65149 70.838 4.52325C70.8746 4.39501 70.8775 4.25952 70.8465 4.12982L70.484 1.6731L69.8048 1.77748L70.1673 4.23421C70.179 4.33022 70.16 4.42749 70.1129 4.51202C70.0659 4.59655 69.9933 4.664 69.9056 4.70468C69.8101 4.76262 69.7028 4.7983 69.5917 4.80906" fill="#6E6D5E"/>
<path d="M86.4241 18.296L86.3197 17.4595L87.7833 17.6683L86.4241 18.296ZM88.4104 17.2507L84.8583 16.5186L84.9627 17.2507L85.7471 17.4073L85.9036 18.6099L85.2244 18.9724L85.3288 19.6516L88.5184 17.9785L88.4104 17.2507Z" fill="#6E6D5E"/>
<path d="M87.8884 23.1044H88.045C88.2538 23 88.3067 22.6861 88.3067 22.4251C88.3067 22.1642 88.2023 21.9025 87.9928 21.8503C87.9304 21.8183 87.8583 21.8113 87.7909 21.8307C87.7236 21.8501 87.6662 21.8944 87.6304 21.9547C87.2679 22.5295 87.526 23.7321 86.5328 23.9409C86.3316 23.9756 86.1245 23.9493 85.9383 23.8655C85.752 23.7816 85.5951 23.6441 85.4875 23.4705C85.3327 23.1716 85.2519 22.84 85.2519 22.5034C85.2519 22.1669 85.3327 21.8352 85.4875 21.5364C85.5849 21.4024 85.71 21.291 85.8544 21.2098C85.9988 21.1286 86.159 21.0795 86.3241 21.0659L86.3763 21.693C86.268 21.7117 86.1652 21.7539 86.0749 21.8165C85.9846 21.8791 85.9091 21.9606 85.8536 22.0554C85.7704 22.2338 85.741 22.4326 85.7688 22.6275C85.7966 22.8223 85.8805 23.0049 86.0102 23.1529C86.0686 23.1987 86.1384 23.2278 86.2121 23.237C86.2858 23.2462 86.3605 23.2352 86.4284 23.2051C86.8467 22.9434 86.7423 22.212 86.9511 21.7415C86.9975 21.5912 87.0823 21.4556 87.1971 21.348C87.3118 21.2405 87.4527 21.1647 87.6057 21.1281C87.7586 21.0915 87.9185 21.0954 88.0696 21.1394C88.2206 21.1834 88.3575 21.266 88.4669 21.3791C88.6729 21.621 88.8066 21.9159 88.8529 22.2303C88.8992 22.5446 88.8561 22.8656 88.7286 23.1566C88.6611 23.3386 88.5401 23.496 88.3814 23.6079C88.2228 23.7198 88.034 23.7811 87.8399 23.7836L87.8921 23.1044H87.8884Z" fill="#6E6D5E"/>
<path d="M60.4447 17.9821C60.3975 18.3548 60.2327 18.7026 59.9743 18.9752C59.8804 19.07 59.7638 19.139 59.6355 19.1755C59.5073 19.2121 59.3718 19.215 59.2421 19.184L56.7854 18.8216L56.8898 18.1423L59.3465 18.5048C59.4408 18.5053 59.5336 18.4814 59.616 18.4356C59.6984 18.3898 59.7676 18.3235 59.817 18.2431C59.8749 18.1476 59.9106 18.0403 59.9213 17.9292" fill="#6E6D5E"/>
<path d="M60.4447 17.9329C60.4997 17.5597 60.4453 17.1784 60.2881 16.8354C60.2223 16.7226 60.1315 16.6264 60.0229 16.5539C59.9142 16.4814 59.7905 16.4347 59.6611 16.4171L57.2044 16.0547L57.1 16.7339L59.5567 17.0964C59.6511 17.1235 59.7356 17.1775 59.8 17.2518C59.8643 17.326 59.9057 17.4173 59.9192 17.5147V17.8285" fill="#6E6D5E"/>
<path d="M64.6789 5.59346L64.2607 4.18206L65.3582 5.17519L64.6789 5.59346ZM64.2607 3.39771L63.6336 3.76016L64.3658 7.31223L64.9406 6.94977L64.784 6.16542L65.8294 5.53837L66.4042 6.06103L66.9791 5.69857L64.2607 3.39771Z" fill="#6E6D5E"/>
<path d="M80.7785 4.49519L79.3671 3.92033L79.6288 3.24109L81.3012 3.92033L81.51 3.39767L79.2105 2.40454L77.8513 5.59415L80.2037 6.53654L80.4124 6.01388L78.7401 5.33463L79.1025 4.44589L80.5661 5.07294L80.7785 4.49519Z" fill="#6E6D5E"/>
<path d="M59.3465 13.2767L58.51 13.015C58.7187 12.4401 58.7716 11.8653 59.1892 11.8653C59.2631 11.8626 59.3363 11.8807 59.4004 11.9176C59.4645 11.9546 59.5169 12.0088 59.5517 12.074C59.7082 12.2828 59.4995 12.7011 59.3429 13.2767M60.0221 12.074C60.0362 11.9606 60.0247 11.8454 59.9886 11.7369C59.9525 11.6284 59.8926 11.5294 59.8133 11.447C59.7079 11.3514 59.5837 11.2787 59.4487 11.2337C59.3137 11.1886 59.1707 11.1721 59.029 11.1853C58.2446 11.2897 58.1924 12.1784 57.7742 13.5376L61.0152 14.5308L61.224 13.8515L59.9192 13.4891H59.867C59.9375 13.2223 60.0249 12.9603 60.1287 12.7047C60.3904 12.1821 61.2262 12.7047 61.5923 12.6525L61.8011 11.9733C61.2262 11.9211 60.4418 11.3984 60.0236 12.0777" fill="#6E6D5E"/>
<path d="M84.3857 7.37018C84.3426 7.42778 84.2883 7.476 84.226 7.5119C84.1636 7.54779 84.0947 7.57061 84.0232 7.57895C83.7615 7.57895 83.5528 7.16068 83.1867 6.69021L83.9188 6.16755C84.2327 6.63802 84.651 7.05629 84.3893 7.37018M83.863 5.27953L81.1446 7.37018L81.5629 7.94503L82.6082 7.10849L82.6604 7.05629C82.852 7.25653 83.0108 7.48577 83.1309 7.73553C83.4447 8.2582 82.5038 8.62428 82.3465 8.93816L82.7648 9.51302C83.0787 9.04255 83.9674 8.67647 83.7072 7.99723C83.7873 8.07968 83.8861 8.14167 83.9952 8.178C84.1044 8.21433 84.2206 8.22394 84.3342 8.206C84.4738 8.17892 84.6063 8.12312 84.7233 8.04213C84.8402 7.96114 84.939 7.85673 85.0135 7.73553C85.3759 7.00337 84.6996 6.43069 83.8637 5.27881" fill="#6E6D5E"/>
<path d="M5.24414 16.4136V12.1272H6.23727V16.4136H5.24414Z" fill="white"/>
<path d="M7.54572 14.9498V15.2637C7.5386 15.3779 7.57601 15.4904 7.65011 15.5776C7.7023 15.682 7.80669 15.682 7.96399 15.682C8.06101 15.6801 8.15403 15.643 8.22569 15.5776C8.29128 15.4858 8.32766 15.3764 8.33008 15.2637C8.32649 15.136 8.29057 15.0113 8.22569 14.9012C8.1213 14.849 8.01691 14.7447 7.80741 14.6395C7.63523 14.56 7.4765 14.4541 7.33695 14.3257C7.23256 14.2213 7.12817 14.1691 7.02306 14.064C6.9241 13.9626 6.85229 13.838 6.81428 13.7015C6.77123 13.5486 6.7536 13.3897 6.76209 13.231C6.7486 13.0691 6.7696 12.9062 6.82371 12.753C6.87781 12.5998 6.9638 12.4598 7.07598 12.3423C7.20416 12.2297 7.35358 12.144 7.51543 12.0901C7.67728 12.0362 7.84828 12.0152 8.01836 12.0284C8.19286 12.0107 8.36908 12.0343 8.53278 12.0973C8.69648 12.1602 8.84309 12.2608 8.96075 12.3909C9.18008 12.6741 9.29136 13.0262 9.27463 13.384H8.33225C8.34384 13.2253 8.32615 13.0658 8.28006 12.9135C8.26112 12.8613 8.22474 12.8172 8.17707 12.7887C8.12939 12.7602 8.07334 12.749 8.01836 12.757C7.92771 12.7432 7.8351 12.7616 7.75667 12.8091C7.65228 12.9135 7.60009 12.9657 7.60009 13.0708V13.123C7.59191 13.2135 7.61003 13.3043 7.65228 13.3847C7.70448 13.4369 7.75667 13.5413 7.86106 13.5935C8.12275 13.7501 8.27933 13.8552 8.43591 13.956C8.56525 14.0307 8.68669 14.1184 8.79837 14.2176C8.91356 14.3156 9.00334 14.4399 9.06006 14.5801C9.12893 14.782 9.1642 14.9938 9.16445 15.2072C9.17767 15.3772 9.15671 15.5482 9.1028 15.7101C9.04889 15.8719 8.96313 16.0214 8.85056 16.1495C8.72238 16.2621 8.57296 16.3479 8.41111 16.4018C8.24926 16.4557 8.07825 16.4767 7.90818 16.4634C7.55035 16.4801 7.19827 16.3689 6.91505 16.1495C6.80236 16.0546 6.71478 15.9334 6.66004 15.7966C6.60529 15.6598 6.58507 15.5116 6.60116 15.3652V14.8947H7.54355L7.54572 14.9498Z" fill="white"/>
<path d="M12.3012 15.0542C12.342 15.4468 12.2295 15.8401 11.9873 16.1517C11.699 16.4036 11.3242 16.5335 10.9419 16.5142C10.7517 16.536 10.5589 16.5147 10.378 16.452C10.1971 16.3893 10.0325 16.2866 9.89662 16.1517C9.66975 15.8324 9.55898 15.4451 9.58274 15.0542V13.3289C9.56504 13.1544 9.58862 12.9782 9.65158 12.8145C9.71455 12.6508 9.81512 12.5042 9.94519 12.3865C10.2243 12.1594 10.5794 12.0472 10.9383 12.0726C11.2972 12.0472 11.6524 12.1594 11.9315 12.3865C12.0518 12.5114 12.1459 12.6591 12.2082 12.821C12.2704 12.9829 12.2996 13.1556 12.2939 13.3289L12.3012 15.0542ZM11.308 13.3797C11.32 13.2381 11.3022 13.0956 11.2558 12.9614C11.2311 12.9135 11.1935 12.8736 11.1472 12.8459C11.101 12.8182 11.048 12.804 10.9941 12.8048C10.8376 12.8048 10.7324 12.857 10.7324 12.9614C10.6861 13.0956 10.6683 13.2381 10.6803 13.3797V15.1049C10.6683 15.2465 10.6861 15.389 10.7324 15.5232C10.7635 15.5774 10.8098 15.6212 10.8657 15.649C10.9215 15.6769 10.9844 15.6876 11.0463 15.6798C11.2029 15.6798 11.308 15.6276 11.308 15.5232C11.3544 15.389 11.3722 15.2465 11.3602 15.1049V13.3797H11.308Z" fill="white"/>
<path d="M15.0711 15.3688C15.0627 15.4761 15.0806 15.5838 15.1232 15.6827C15.1554 15.7197 15.1959 15.7485 15.2414 15.7666C15.2869 15.7848 15.3362 15.7918 15.3849 15.7871C15.4388 15.7879 15.4918 15.7736 15.538 15.746C15.5843 15.7183 15.6219 15.6783 15.6466 15.6305C15.693 15.4962 15.7108 15.3538 15.6988 15.2122V14.794C15.6596 14.8397 15.6116 14.8771 15.5577 14.904C15.5038 14.9309 15.4451 14.9467 15.3849 14.9505C15.2806 14.9505 15.1762 15.0027 15.0225 15.0027C14.8784 15.0207 14.7321 14.996 14.6019 14.9315C14.4718 14.8671 14.3634 14.7658 14.2903 14.6403C14.1299 14.3534 14.0573 14.0257 14.0815 13.6979C14.0624 13.298 14.1529 12.9004 14.3432 12.5482C14.4762 12.4091 14.6404 12.3037 14.8221 12.2407C15.0039 12.1777 15.1981 12.1588 15.3886 12.1857C15.5686 12.1654 15.7509 12.1934 15.9165 12.2669C16.0822 12.3404 16.2252 12.4568 16.3309 12.604C16.5394 12.9299 16.6316 13.3166 16.5926 13.7015V14.8512C16.6234 15.2801 16.5518 15.7102 16.3839 16.106C16.2825 16.2609 16.1419 16.3861 15.9763 16.4687C15.8107 16.5514 15.6262 16.5886 15.4415 16.5765C15.0894 16.5847 14.7422 16.4927 14.4404 16.3112C14.3286 16.2043 14.2423 16.0736 14.1879 15.9287C14.1336 15.7839 14.1126 15.6287 14.1265 15.4746H15.0689L15.0711 15.3688ZM15.0711 13.5913C15.0597 13.7672 15.0774 13.9438 15.1232 14.114C15.1422 14.1662 15.1786 14.2103 15.2262 14.2388C15.2739 14.2674 15.33 14.2786 15.3849 14.2706C15.4388 14.2713 15.4918 14.2571 15.538 14.2295C15.5843 14.2018 15.6219 14.1618 15.6466 14.114C15.6927 13.9991 15.7106 13.8748 15.6988 13.7515V13.4376C15.7108 13.2961 15.693 13.1536 15.6466 13.0194C15.6277 12.9671 15.5913 12.923 15.5436 12.8945C15.496 12.866 15.4399 12.8548 15.3849 12.8628C15.2284 12.8628 15.1762 12.915 15.1232 13.0716C15.0771 13.2239 15.0595 13.3833 15.0711 13.542V13.5913Z" fill="white"/>
<path d="M16.9529 13.3298C16.9344 13.1675 16.9531 13.0032 17.0074 12.8492C17.0618 12.6952 17.1505 12.5557 17.2668 12.441C17.395 12.3285 17.5444 12.2427 17.7063 12.1888C17.8681 12.1349 18.0391 12.1139 18.2092 12.1271C18.3918 12.0995 18.5785 12.1182 18.752 12.1816C18.9256 12.2449 19.0804 12.3508 19.2023 12.4896C19.3935 12.8226 19.4844 13.2037 19.464 13.5871V15.1065C19.4851 15.4738 19.393 15.8386 19.2002 16.1518C19.0642 16.2682 18.9062 16.356 18.7356 16.41C18.5649 16.4639 18.3852 16.4829 18.207 16.4657C17.8729 16.4823 17.5424 16.3906 17.2646 16.204C17.153 16.0865 17.0676 15.9467 17.0138 15.7937C16.9601 15.6408 16.9394 15.4783 16.9529 15.3167V13.3298ZM18.5209 13.3298C18.5288 13.2066 18.5111 13.0832 18.4687 12.9673C18.4498 12.9151 18.4134 12.871 18.3657 12.8425C18.3181 12.8139 18.262 12.8027 18.207 12.8107C18.1582 12.806 18.109 12.813 18.0635 12.8312C18.018 12.8493 17.9775 12.8781 17.9453 12.9151C17.8992 13.03 17.8813 13.1543 17.8931 13.2776V15.2116C17.8812 15.3532 17.899 15.4956 17.9453 15.6299C17.9707 15.6772 18.0083 15.7167 18.0544 15.7443C18.1004 15.7718 18.153 15.7864 18.2067 15.7864C18.2603 15.7864 18.3129 15.7718 18.359 15.7443C18.405 15.7167 18.4427 15.6772 18.468 15.6299C18.5141 15.515 18.532 15.3907 18.5202 15.2675L18.5209 13.3298Z" fill="white"/>
<path d="M19.8286 13.3298C19.8101 13.1675 19.8288 13.0032 19.8831 12.8492C19.9375 12.6952 20.0262 12.5557 20.1425 12.441C20.2707 12.3285 20.4201 12.2427 20.582 12.1888C20.7438 12.1349 20.9148 12.1139 21.0849 12.1271C21.2675 12.0995 21.4542 12.1182 21.6277 12.1816C21.8013 12.2449 21.9561 12.3508 22.078 12.4896C22.2692 12.8226 22.3601 13.2037 22.3397 13.5871V15.1065C22.3614 15.4735 22.2701 15.8384 22.078 16.1518C21.9421 16.2682 21.7841 16.356 21.6134 16.41C21.4428 16.4639 21.263 16.4829 21.0849 16.4657C20.7508 16.4823 20.4202 16.3906 20.1425 16.204C20.0305 16.0867 19.9447 15.9469 19.8906 15.794C19.8365 15.6411 19.8153 15.4784 19.8286 15.3167V13.3298ZM21.3966 13.3298C21.4045 13.2066 21.3868 13.0832 21.3444 12.9673C21.3255 12.9151 21.2891 12.871 21.2414 12.8425C21.1938 12.8139 21.1377 12.8027 21.0827 12.8107C21.0339 12.806 20.9847 12.813 20.9392 12.8312C20.8937 12.8493 20.8532 12.8781 20.821 12.9151C20.7749 13.03 20.757 13.1543 20.7688 13.2776V15.2116C20.7569 15.3532 20.7747 15.4956 20.821 15.6299C20.8464 15.6772 20.8841 15.7167 20.9301 15.7443C20.9761 15.7718 21.0287 15.7864 21.0824 15.7864C21.136 15.7864 21.1886 15.7718 21.2347 15.7443C21.2807 15.7167 21.3184 15.6772 21.3437 15.6299C21.3898 15.515 21.4077 15.3907 21.3959 15.2675L21.3966 13.3298Z" fill="white"/>
<path d="M23.5924 13.5363H22.7036V12.857C22.9564 12.861 23.2068 12.8075 23.4358 12.7004C23.5358 12.6575 23.6251 12.5931 23.6973 12.5118C23.7696 12.4305 23.8231 12.3343 23.8541 12.23H24.4811V16.412H23.5924V13.5363Z" fill="white"/>
<path d="M6.86504 30.684V30.4223C6.86504 30.0599 6.76065 29.8475 6.55115 29.8475C6.43696 29.8404 6.32445 29.8778 6.23726 29.9519C6.17168 30.0436 6.13529 30.153 6.13288 30.2658V32.3564C6.13219 32.4042 6.1411 32.4516 6.15907 32.4959C6.17705 32.5402 6.20372 32.5804 6.23751 32.6142C6.27131 32.648 6.31154 32.6747 6.35582 32.6927C6.40011 32.7106 6.44755 32.7195 6.49533 32.7189C6.55727 32.7267 6.62013 32.716 6.67599 32.6881C6.73185 32.6602 6.77821 32.6165 6.80922 32.5623C6.85557 32.428 6.87335 32.2855 6.86141 32.144V31.7815H7.85454V32.3042C7.86699 32.4703 7.84074 32.637 7.77785 32.7912C7.71495 32.9454 7.61713 33.0829 7.49209 33.1929C7.17589 33.4278 6.78493 33.5394 6.3924 33.5068C6.21 33.5291 6.02491 33.5079 5.85229 33.4449C5.67966 33.3819 5.52442 33.2789 5.39927 33.1444C5.17993 32.8612 5.06866 32.5091 5.08538 32.1512V30.426C5.06079 30.0511 5.17224 29.6799 5.39927 29.3806C5.67793 29.1525 6.0331 29.0392 6.3924 29.0638C6.75131 29.0384 7.10643 29.1506 7.38552 29.3777C7.50588 29.5026 7.59997 29.6503 7.66223 29.8122C7.72449 29.9741 7.75365 30.1468 7.74798 30.3201V30.6826L6.86504 30.684Z" fill="white"/>
<path d="M9.21883 32.0433V32.6182C9.21064 32.7086 9.22877 32.7995 9.27102 32.8799C9.29588 32.9117 9.32752 32.9376 9.36363 32.9556C9.39974 32.9737 9.43943 32.9835 9.47979 32.9843C9.63637 32.9843 9.74149 32.9321 9.74149 32.8277C9.79179 32.6944 9.80968 32.551 9.79368 32.4094H10.7361C10.7564 32.5722 10.7394 32.7375 10.6861 32.8927C10.6329 33.0479 10.5449 33.1889 10.4289 33.3049C10.3129 33.4209 10.1719 33.5089 10.0167 33.5621C9.86153 33.6153 9.69623 33.6324 9.53344 33.6121C9.21803 33.6132 8.90915 33.5222 8.6447 33.3504C8.53168 33.2648 8.4401 33.154 8.3772 33.027C8.3143 32.8999 8.28179 32.76 8.28224 32.6182V31.3134C8.26834 31.1593 8.28934 31.0041 8.34369 30.8593C8.39803 30.7144 8.48431 30.5837 8.59613 30.4768C8.85718 30.2977 9.16838 30.206 9.48487 30.2151C9.79509 30.197 10.1039 30.2696 10.3736 30.4239C10.4853 30.4985 10.5768 30.5996 10.64 30.718C10.7033 30.8365 10.7363 30.9688 10.7361 31.1031V31.9919H9.21883V32.0433ZM9.84587 31.4163V31.1024C9.84587 30.998 9.84587 30.9458 9.79368 30.8936C9.76882 30.8618 9.73718 30.8359 9.70107 30.8179C9.66495 30.7998 9.62527 30.7901 9.58491 30.7892C9.48789 30.7911 9.39487 30.8282 9.32321 30.8936C9.27102 30.9458 9.27102 31.0502 9.27102 31.2075V31.4163H9.84587Z" fill="white"/>
<path d="M12.0402 30.318V30.7884C12.0827 30.6256 12.174 30.4796 12.3019 30.3702C12.3659 30.314 12.4405 30.2712 12.5213 30.2444C12.6021 30.2175 12.6875 30.207 12.7724 30.2136V31.2589H12.4585C12.3678 31.2451 12.2752 31.2636 12.1968 31.3111C12.1598 31.3432 12.131 31.3838 12.1128 31.4293C12.0947 31.4748 12.0877 31.524 12.0924 31.5728V33.5591H11.2036V30.318H12.0402Z" fill="white"/>
<path d="M12.9282 30.9457V30.3201H13.2906V29.3777H14.1794V30.3201H14.5977V30.9993H14.1794V32.6717C14.1794 32.7761 14.1794 32.8283 14.2316 32.8283C14.2522 32.8481 14.2769 32.863 14.304 32.872C14.3311 32.8811 14.3598 32.8839 14.3882 32.8805H14.6499V33.5097C14.5427 33.5052 14.4359 33.523 14.336 33.5619H14.0221C13.9223 33.5776 13.8203 33.5696 13.7243 33.5384C13.6282 33.5071 13.541 33.4536 13.4696 33.3822C13.3982 33.3108 13.3447 33.2236 13.3134 33.1275C13.2822 33.0315 13.2742 32.9295 13.2899 32.8297V30.9979H12.9275L12.9282 30.9457Z" fill="white"/>
<path d="M15.0718 30.0048V29.2205H15.9605V30.0048H15.0718ZM15.0718 33.5069V30.3172H15.9605V33.5069H15.0718Z" fill="white"/>
<path d="M16.7934 30.9456H16.431V30.3185H16.7934V30.0569C16.7934 29.743 16.8456 29.5342 17.0022 29.4298C17.2013 29.2911 17.4388 29.2181 17.6814 29.221H18.0997V29.9003H17.7373C17.6851 29.9003 17.6851 29.9525 17.6851 30.0047V30.3185H18.0475V30.9978H17.6851V33.5067H16.7934V30.9456Z" fill="white"/>
<path d="M18.5738 30.0048V29.2205H19.4626V30.0048H18.5738ZM18.5738 33.5069V30.3172H19.4626V33.5069H18.5738Z" fill="white"/>
<path d="M21.5532 31.4661V31.4139C21.5611 31.2908 21.5433 31.1674 21.501 31.0515C21.4488 30.8949 21.3966 30.8427 21.2393 30.8427C21.1989 30.8435 21.1593 30.8533 21.1231 30.8713C21.087 30.8894 21.0554 30.9153 21.0305 30.9471C20.983 31.0255 20.9645 31.1181 20.9783 31.2088V32.5136C20.9645 32.6043 20.983 32.6969 21.0305 32.7753C21.0549 32.8077 21.0865 32.834 21.1228 32.8522C21.1591 32.8703 21.1991 32.8797 21.2397 32.8797C21.2802 32.8797 21.3202 32.8703 21.3565 32.8522C21.3928 32.834 21.4244 32.8077 21.4488 32.7753C21.501 32.7231 21.501 32.5665 21.501 32.357V32.1475H22.3897V32.5658C22.3863 32.7112 22.3506 32.8541 22.2854 32.9841C22.2265 33.138 22.1154 33.2663 21.9715 33.3466C21.8113 33.4472 21.6342 33.5179 21.4488 33.5553H21.1349C20.9849 33.5726 20.833 33.5582 20.6889 33.5131C20.5448 33.4681 20.4118 33.3933 20.2984 33.2936C20.1961 33.2016 20.1151 33.0885 20.0609 32.9621C20.0067 32.8357 19.9806 32.699 19.9845 32.5615V31.2566C19.9705 31.1068 19.9865 30.9557 20.0314 30.8121C20.0763 30.6685 20.1493 30.5352 20.2462 30.4201C20.4875 30.2408 20.7823 30.1486 21.0827 30.1584C21.2528 30.1452 21.4238 30.1661 21.5857 30.22C21.7475 30.2739 21.8969 30.3597 22.0251 30.4723C22.2181 30.766 22.31 31.1147 22.2868 31.4654H21.5546L21.5532 31.4661Z" fill="white"/>
<path d="M24.376 33.1931C24.2716 33.2974 24.1143 33.4018 24.0135 33.5069C23.8835 33.5722 23.7407 33.6079 23.5953 33.6113C23.4814 33.6281 23.3652 33.618 23.2559 33.5819C23.1467 33.5458 23.0473 33.4848 22.9658 33.4035C22.8843 33.3223 22.8229 33.2232 22.7864 33.114C22.7499 33.0049 22.7395 32.8887 22.7558 32.7748C22.7285 32.513 22.8033 32.2507 22.9646 32.0426C23.1053 31.8903 23.2867 31.7814 23.4872 31.7287C23.696 31.6765 23.9055 31.5722 24.0621 31.52C24.1307 31.4973 24.1916 31.4559 24.2378 31.4004C24.2841 31.345 24.3139 31.2776 24.3238 31.2061C24.332 31.1156 24.3139 31.0248 24.2716 30.9444C24.2467 30.9126 24.2151 30.8867 24.179 30.8686C24.1429 30.8506 24.1032 30.8408 24.0628 30.84C23.9063 30.84 23.8011 30.8922 23.8011 30.9444C23.755 31.0593 23.7371 31.1836 23.7489 31.3068H22.8602C22.8463 31.1528 22.8673 30.9976 22.9216 30.8527C22.976 30.7079 23.0623 30.5772 23.1741 30.4703C23.4351 30.2934 23.7455 30.2035 24.0607 30.2137C24.3897 30.1678 24.7242 30.2419 25.003 30.4224C25.1822 30.6232 25.276 30.8858 25.2647 31.1546V33.2453C25.2647 33.2974 25.3169 33.3496 25.3169 33.454H24.4282L24.376 33.1931ZM24.376 31.9382C24.2616 31.9681 24.1547 32.0214 24.0621 32.0948C24.0099 32.0948 23.9577 32.147 23.9055 32.1992L23.7489 32.3558C23.7014 32.4342 23.683 32.5268 23.6968 32.6175C23.6961 32.6653 23.705 32.7127 23.7229 32.757C23.7409 32.8013 23.7676 32.8415 23.8014 32.8753C23.8352 32.9091 23.8754 32.9358 23.9197 32.9537C23.964 32.9717 24.0114 32.9806 24.0592 32.9799C24.1131 32.9807 24.1661 32.9665 24.2123 32.9388C24.2585 32.9112 24.2961 32.8712 24.3209 32.8234C24.3635 32.7245 24.3814 32.6168 24.3731 32.5095L24.376 31.9382Z" fill="white"/>
<path d="M25.5786 30.9457V30.3201H25.9411V29.3777H26.8298V30.3201H27.2481V30.9993H26.8298V32.6717C26.8298 32.7761 26.8298 32.8283 26.882 32.8283C26.9026 32.8481 26.9273 32.863 26.9544 32.872C26.9815 32.8811 27.0103 32.8839 27.0386 32.8805H27.3003V33.5097C27.1932 33.5052 27.0863 33.523 26.9864 33.5619H26.6725C26.5728 33.5776 26.4707 33.5696 26.3747 33.5384C26.2787 33.5071 26.1914 33.4536 26.12 33.3822C26.0486 33.3108 25.9951 33.2236 25.9639 33.1275C25.9327 33.0315 25.9246 32.9295 25.9404 32.8297V30.9979H25.5779L25.5786 30.9457Z" fill="white"/>
<path d="M27.7215 30.0048V29.2205H28.6102V30.0048H27.7215ZM27.7215 33.5069V30.3172H28.6102V33.5069H27.7215Z" fill="white"/>
<path d="M29.238 31.311C29.2241 31.157 29.2451 31.0017 29.2994 30.8569C29.3538 30.7121 29.4401 30.5814 29.5519 30.4745C29.8129 30.2953 30.1241 30.2037 30.4406 30.2128C31.225 30.2128 31.6432 30.5752 31.6432 31.3103V32.6151C31.658 32.7538 31.6369 32.894 31.582 33.0222C31.527 33.1504 31.44 33.2624 31.3294 33.3473C31.0683 33.5264 30.7571 33.6181 30.4406 33.609C30.2906 33.6263 30.1387 33.6119 29.9946 33.5668C29.8505 33.5217 29.7175 33.447 29.6041 33.3473C29.5018 33.2553 29.4208 33.1422 29.3666 33.0157C29.3124 32.8893 29.2863 32.7526 29.2902 32.6151V31.3103L29.238 31.311ZM30.1267 32.6702C30.1267 32.879 30.2311 32.9319 30.3884 32.9319C30.4928 32.9319 30.545 32.9319 30.5972 32.8797C30.6494 32.8275 30.6494 32.7753 30.6494 32.671V31.2588C30.6632 31.1682 30.6447 31.0756 30.5972 30.9971C30.5972 30.8927 30.4928 30.8405 30.3884 30.8405C30.3481 30.8414 30.3084 30.8511 30.2723 30.8692C30.2361 30.8873 30.2045 30.9131 30.1796 30.9449C30.1321 31.0234 30.1137 31.116 30.1275 31.2066L30.1267 32.6702Z" fill="white"/>
<path d="M32.9495 30.318V30.7363C33.0192 30.6038 33.1073 30.4817 33.2112 30.3738C33.3093 30.2797 33.4379 30.2241 33.5737 30.2173C33.7764 30.2131 33.976 30.2675 34.1485 30.3738C34.2289 30.4232 34.2952 30.4924 34.341 30.5748C34.3869 30.6572 34.4107 30.75 34.4102 30.8443V33.4576H33.5244V31.156C33.5244 31.0516 33.5244 30.9994 33.4722 30.9473C33.42 30.8951 33.3678 30.8951 33.2634 30.8951C33.2285 30.8929 33.1935 30.8983 33.1608 30.9107C33.1281 30.9231 33.0984 30.9423 33.0737 30.967C33.0489 30.9917 33.0297 31.0214 33.0173 31.0542C33.0049 31.0869 32.9996 31.1218 33.0017 31.1568V33.4569H32.113V30.318H32.9495Z" fill="white"/>
<path d="M5.24414 27.3387V22.5818H6.70774C7.09048 22.5686 7.46968 22.659 7.80525 22.8435C7.94361 22.9571 8.05349 23.1015 8.12611 23.2651C8.19873 23.4288 8.23209 23.6071 8.22353 23.7859C8.21892 23.9818 8.1837 24.1758 8.11914 24.3608C8.02179 24.5367 7.87683 24.6817 7.70087 24.779C7.90681 24.8776 8.07283 25.0436 8.17133 25.2495C8.26983 25.4615 8.30604 25.697 8.27572 25.9288C8.29272 26.1187 8.2692 26.3101 8.20671 26.4903C8.14423 26.6705 8.04421 26.8354 7.91327 26.9741C7.76904 27.0939 7.60214 27.1835 7.42255 27.2374C7.24295 27.2913 7.05433 27.3085 6.86794 27.288H5.24414V27.3387ZM6.34166 24.4666C6.53849 24.4727 6.73438 24.4371 6.91651 24.3622C7.0209 24.31 7.07309 24.1532 7.07309 23.8918C7.07309 23.683 7.0209 23.5779 6.91651 23.5293C6.72954 23.4778 6.53485 23.4601 6.34166 23.4771V24.4666ZM6.34166 26.5051C6.53485 26.5221 6.72954 26.5044 6.91651 26.4529C7.0209 26.4007 7.12529 26.2441 7.12529 25.878C7.12529 25.6166 7.07309 25.4597 6.96871 25.4075C6.76954 25.3284 6.55573 25.2928 6.34166 25.3032V26.5051Z" fill="white"/>
<path d="M8.74618 22.634H9.8437V26.186C9.83558 26.2429 9.84081 26.3008 9.85896 26.3552C9.87711 26.4097 9.90768 26.4592 9.94827 26.4998C9.98885 26.5403 10.0383 26.5709 10.0928 26.5891C10.1472 26.6072 10.2052 26.6124 10.262 26.6043C10.3158 26.6051 10.3688 26.5909 10.4151 26.5632C10.4613 26.5356 10.4989 26.4956 10.5237 26.4477C10.5826 26.3525 10.6193 26.2452 10.631 26.1339V22.5818H11.7256V25.9794C11.738 26.1691 11.7123 26.3592 11.65 26.5388C11.5878 26.7183 11.4902 26.8835 11.3631 27.0248C11.2102 27.1693 11.0293 27.281 10.8316 27.3529C10.6338 27.4249 10.4234 27.4555 10.2134 27.443C10.0155 27.4598 9.81621 27.4363 9.62759 27.374C9.43898 27.3117 9.26491 27.2119 9.11589 27.0806C8.98097 26.9447 8.87835 26.7802 8.81561 26.5992C8.75287 26.4183 8.73162 26.2255 8.75343 26.0353V22.634H8.74618Z" fill="white"/>
<path d="M13.3465 27.3388H12.249V22.5819H13.8691C14.2449 22.5486 14.6192 22.661 14.9145 22.8958C15.0306 23.0315 15.1182 23.1891 15.1721 23.3594C15.2261 23.5296 15.2452 23.709 15.2284 23.8868C15.2275 24.1171 15.1923 24.346 15.124 24.566C15.006 24.7438 14.8439 24.8879 14.6535 24.9843C14.8068 25.0216 14.9498 25.0929 15.0718 25.193C15.1764 25.3068 15.2326 25.4568 15.2284 25.6113C15.2229 25.8738 15.2404 26.1362 15.2805 26.3957C15.3185 26.62 15.336 26.8474 15.3327 27.0749C15.3849 27.1271 15.3849 27.1793 15.4371 27.2315V27.2837H14.2352C14.2352 27.2315 14.183 27.1793 14.183 27.1271V26.1847C14.1866 26.0946 14.1688 26.0049 14.1308 25.923C14.129 25.826 14.0919 25.733 14.0264 25.6613C13.9743 25.557 13.8699 25.557 13.7648 25.557H13.3465V27.3388ZM13.3465 24.6204H13.7089C13.7709 24.6282 13.8337 24.6175 13.8896 24.5896C13.9455 24.5618 13.9918 24.518 14.0228 24.4638C14.0881 24.3338 14.1237 24.1909 14.1272 24.0455C14.1272 23.7841 14.075 23.6272 13.9706 23.575C13.7715 23.4959 13.5577 23.4603 13.3436 23.4707L13.3465 24.6204Z" fill="white"/>
<path d="M15.751 27.3387V22.5818H18.3121V23.5242H16.9007V24.4129H18.3121V25.3553H16.9007V26.4006H18.4165V27.343H15.751V27.3387Z" fill="white"/>
<path d="M18.6782 27.3387L19.7235 22.5818H21.0827L22.128 27.3387H21.0305L20.8739 26.3963H19.983L19.8265 27.3387H18.6782ZM20.4035 23.4705L20.041 25.6134H20.6681L20.4035 23.4705Z" fill="white"/>
<path d="M22.3898 22.634H23.4873V26.186C23.4792 26.2429 23.4844 26.3008 23.5025 26.3552C23.5207 26.4097 23.5513 26.4592 23.5918 26.4998C23.6324 26.5403 23.6819 26.5709 23.7364 26.5891C23.7908 26.6072 23.8487 26.6124 23.9056 26.6043C23.9594 26.6051 24.0124 26.5909 24.0586 26.5632C24.1049 26.5356 24.1425 26.4956 24.1672 26.4477C24.2262 26.3525 24.2629 26.2452 24.2745 26.1339V22.5818H25.3692V25.9794C25.3816 26.1691 25.3559 26.3592 25.2936 26.5388C25.2314 26.7183 25.1338 26.8835 25.0067 27.0248C24.8498 27.1603 24.6669 27.2623 24.4692 27.3247C24.2716 27.387 24.0632 27.4083 23.857 27.3872C23.6591 27.404 23.4598 27.3805 23.2712 27.3182C23.0826 27.2559 22.9085 27.1561 22.7595 27.0248C22.6246 26.8888 22.5219 26.7243 22.4592 26.5434C22.3964 26.3624 22.3752 26.1697 22.397 25.9794V22.634H22.3898Z" fill="white"/>
<path d="M28.3485 27.3387L27.3032 22.5818H28.4007L28.9756 25.9273L29.5504 22.5818H30.6479L29.6026 27.3387H28.3485Z" fill="white"/>
<path d="M31.0147 27.3387V22.5818H33.5759V23.5242H32.1645V24.4129H33.5759V25.3553H32.1645V26.4006H33.6802V27.343H31.0147V27.3387Z" fill="white"/>
<path d="M35.2482 27.3388H34.1507V22.5819H35.7709C36.1467 22.5486 36.5209 22.661 36.8162 22.8958C36.9323 23.0315 37.02 23.1891 37.0739 23.3594C37.1278 23.5296 37.147 23.709 37.1301 23.8868C37.1292 24.1171 37.094 24.346 37.0257 24.566C36.9078 24.7438 36.7456 24.8879 36.5553 24.9843C36.7086 25.0216 36.8516 25.0929 36.9735 25.193C37.0782 25.3068 37.1344 25.4568 37.1301 25.6113C37.1247 25.8738 37.1421 26.1362 37.1823 26.3957C37.2203 26.62 37.2377 26.8474 37.2345 27.0749C37.2867 27.1271 37.2867 27.1793 37.3389 27.2315V27.2837H36.137C36.137 27.2315 36.0848 27.1793 36.0848 27.1271V26.1847C36.0884 26.0946 36.0705 26.0049 36.0326 25.923C36.0307 25.826 35.9936 25.733 35.9282 25.6613C35.876 25.557 35.7716 25.557 35.6665 25.557H35.3041V27.3344L35.2482 27.3388ZM35.2482 24.6204H35.6107C35.6726 24.6282 35.7355 24.6175 35.7914 24.5896C35.8472 24.5618 35.8936 24.518 35.9246 24.4638C35.9899 24.3338 36.0255 24.1909 36.029 24.0455C36.029 23.7841 35.9768 23.6272 35.8724 23.575C35.6732 23.4959 35.4594 23.4603 35.2453 23.4707V24.6204H35.2482Z" fill="white"/>
<path d="M37.7057 27.3387V22.5818H38.8032V27.3387H37.7057Z" fill="white"/>
<path d="M39.3259 22.634H42.2009V23.5764H41.3121V27.3387H40.2146V23.5764H39.3259V22.634Z" fill="white"/>
<path d="M42.3582 27.3387L43.4035 22.5818H44.7627L45.808 27.3387H44.7105L44.5539 26.3963H43.663L43.5064 27.3387H42.3582ZM44.0835 23.4705L43.7696 25.6134H44.3966L44.0835 23.4705Z" fill="white"/>
<path d="M46.9577 25.7707V26.0817C46.9613 26.2094 46.9972 26.3341 47.0621 26.4442C47.1143 26.5486 47.2187 26.6007 47.4246 26.6007C47.4784 26.6015 47.5314 26.5873 47.5777 26.5596C47.6239 26.532 47.6615 26.492 47.6863 26.4442C47.7442 26.3487 47.7799 26.2414 47.7906 26.1303C47.7975 26.0615 47.7867 25.9922 47.7593 25.9288C47.7319 25.8654 47.6888 25.81 47.6341 25.7678C47.4945 25.6394 47.3358 25.5335 47.1636 25.4539C46.9826 25.361 46.808 25.2561 46.6409 25.1401C46.5094 25.0485 46.3879 24.9433 46.2785 24.8262C46.1784 24.7042 46.107 24.5612 46.0697 24.4079C46.0049 24.241 45.9696 24.0642 45.9653 23.8852C45.9483 23.7032 45.972 23.5196 46.0346 23.3478C46.0973 23.1761 46.1975 23.0204 46.3278 22.8921C46.6209 22.6487 46.9923 22.52 47.3731 22.5296C47.5676 22.5163 47.7625 22.547 47.9435 22.6194C48.1245 22.6918 48.2868 22.8041 48.4184 22.9479C48.5498 23.0969 48.6496 23.271 48.7119 23.4596C48.7741 23.6482 48.7976 23.8475 48.7809 24.0454H47.7421C47.7572 23.8867 47.7394 23.7265 47.6899 23.575C47.6626 23.5141 47.6187 23.4621 47.5631 23.4252C47.5076 23.3882 47.4427 23.3678 47.376 23.3662C47.3282 23.3655 47.2808 23.3744 47.2365 23.3924C47.1922 23.4104 47.152 23.437 47.1182 23.4708C47.0844 23.5046 47.0577 23.5449 47.0397 23.5891C47.0218 23.6334 47.0129 23.6809 47.0135 23.7286V23.7808C47.0154 23.8779 47.0525 23.9709 47.1179 24.0425C47.1944 24.1246 47.2826 24.195 47.3796 24.2513C47.6413 24.4079 47.8501 24.513 48.0067 24.6138C48.1553 24.7056 48.2953 24.8106 48.4249 24.9277C48.5417 25.0463 48.631 25.189 48.6866 25.3459C48.755 25.5659 48.7902 25.7948 48.791 26.0252C48.8125 26.2157 48.7907 26.4087 48.7274 26.5897C48.6641 26.7707 48.5607 26.9351 48.4251 27.0707C48.2895 27.2063 48.1251 27.3096 47.9441 27.3729C47.7631 27.4363 47.5702 27.458 47.3796 27.4366C46.9887 27.4603 46.6014 27.3496 46.2821 27.1227C46.1621 27.0199 46.0672 26.8912 46.0044 26.7462C45.9416 26.6013 45.9126 26.4439 45.9197 26.2861V25.7635L46.9577 25.7707Z" fill="white"/>
</g>
<defs>
<clipPath id="clip0_1100_7165">
<rect width="99.3187" height="46" fill="white" transform="translate(0.278503)"/>
</clipPath>
</defs>
</svg>
