<svg width="24" height="24" viewBox="0 0 24 24" fill="none" xmlns="http://www.w3.org/2000/svg">
<path d="M23.5152 11.3636L19.0909 6.96966C18.9158 6.83836 18.6993 6.77462 18.481 6.79013C18.2627 6.80564 18.0574 6.89937 17.9026 7.05411C17.7479 7.20885 17.6542 7.41421 17.6387 7.63249C17.6231 7.85077 17.6869 8.06732 17.8182 8.24239L20.6667 11.0909H8.90909C8.66798 11.0909 8.43675 11.1867 8.26627 11.3571C8.09578 11.5276 8 11.7589 8 12C8 12.2411 8.09578 12.4723 8.26627 12.6428C8.43675 12.8133 8.66798 12.9091 8.90909 12.9091H20.6667L17.8182 15.7575C17.714 15.8357 17.6278 15.9353 17.5654 16.0497C17.5031 16.164 17.4661 16.2904 17.4568 16.4204C17.4476 16.5503 17.4664 16.6807 17.5119 16.8027C17.5575 16.9247 17.6287 17.0355 17.7208 17.1276C17.8129 17.2197 17.9237 17.291 18.0457 17.3365C18.1678 17.3821 18.2982 17.4008 18.4281 17.3916C18.558 17.3824 18.6844 17.3453 18.7988 17.283C18.9131 17.2207 19.0128 17.1345 19.0909 17.0303L23.5152 12.6363C23.6817 12.4664 23.775 12.2379 23.775 12C23.775 11.762 23.6817 11.5335 23.5152 11.3636Z" fill="#ACACAC"/>
<path d="M12.7273 9.87879C12.9684 9.87879 13.1996 9.78301 13.3701 9.61252C13.5406 9.44203 13.6364 9.2108 13.6364 8.9697V7.33333C13.6364 6.44928 13.2852 5.60143 12.6601 4.97631C12.0349 4.35119 11.1871 4 10.303 4H4.33333C3.44928 4 2.60143 4.35119 1.97631 4.97631C1.35119 5.60143 1 6.44928 1 7.33333V16.6667C1 17.5507 1.35119 18.3986 1.97631 19.0237C2.60143 19.6488 3.44928 20 4.33333 20H10.303C11.1871 20 12.0349 19.6488 12.6601 19.0237C13.2852 18.3986 13.6364 17.5507 13.6364 16.6667V15.0303C13.6364 14.7892 13.5406 14.558 13.3701 14.3875C13.1996 14.217 12.9684 14.1212 12.7273 14.1212C12.4862 14.1212 12.2549 14.217 12.0844 14.3875C11.914 14.558 11.8182 14.7892 11.8182 15.0303V16.6667C11.8182 16.8656 11.779 17.0627 11.7028 17.2465C11.6267 17.4303 11.5151 17.5973 11.3744 17.738C11.2337 17.8787 11.0667 17.9903 10.8829 18.0665C10.699 18.1426 10.502 18.1818 10.303 18.1818H4.33333C3.93149 18.1818 3.54611 18.0222 3.26196 17.738C2.97781 17.4539 2.81818 17.0685 2.81818 16.6667V7.33333C2.81818 6.93149 2.97781 6.54611 3.26196 6.26196C3.54611 5.97781 3.93149 5.81818 4.33333 5.81818H10.303C10.502 5.81818 10.699 5.85737 10.8829 5.93352C11.0667 6.00966 11.2337 6.12126 11.3744 6.26196C11.5151 6.40265 11.6267 6.56968 11.7028 6.75351C11.779 6.93734 11.8182 7.13436 11.8182 7.33333V8.9697C11.8182 9.2108 11.914 9.44203 12.0844 9.61252C12.2549 9.78301 12.4862 9.87879 12.7273 9.87879Z" fill="#ACACAC"/>
</svg>
