<svg width="56" height="31" viewBox="0 0 56 31" fill="none" xmlns="http://www.w3.org/2000/svg">
<path d="M10.614 2.50317L8.65479 14.0235L16.7274 16.1216L16.4342 2.74343L10.614 2.50317Z" fill="white"/>
<path d="M46.9985 1H19.8123V15.1585H46.9985V1Z" fill="white"/>
<path d="M7.44896 13.1199C7.46838 14.7516 7.53266 19.5121 7.53266 19.5121L8.87654 21.6731L8.89595 21.7117C10.0588 21.8287 11.164 22.2809 12.0799 23.0145C12.9106 23.7078 13.9612 24.0743 15.0382 24.0466C16.1153 24.0689 17.1647 23.7006 17.9964 23.0084C19.1073 22.1471 20.4683 21.6802 21.8684 21.6802C23.2685 21.6802 24.6295 22.1471 25.7403 23.0084C26.5838 23.6791 27.6258 24.0438 28.6989 24.0438C29.7721 24.0438 30.8141 23.6791 31.6575 23.0084C32.7678 22.1457 34.129 21.6779 35.5295 21.6779C36.93 21.6779 38.2912 22.1457 39.4014 23.0084C40.246 23.6791 41.289 24.0436 42.363 24.0436C43.4371 24.0436 44.4801 23.6791 45.3247 23.0084C45.7904 22.6588 46.2982 22.3704 46.8359 22.1503C48.5983 18.6736 51.6791 12.5845 51.6791 12.5845H42.5264L39.6257 14.8355H16.6847L14.382 12.5845H7.44226C7.44226 12.5777 7.44226 12.7842 7.44896 13.1199Z" fill="white"/>
<path d="M7.44896 13.1199C7.46838 14.7516 7.53266 19.5121 7.53266 19.5121L8.87654 21.6731L8.89595 21.7117C10.0588 21.8287 11.164 22.2809 12.0799 23.0145C12.9106 23.7078 13.9612 24.0743 15.0382 24.0466C16.1153 24.0689 17.1647 23.7006 17.9964 23.0084C19.1073 22.1471 20.4683 21.6802 21.8684 21.6802C23.2685 21.6802 24.6295 22.1471 25.7403 23.0084C26.5838 23.6791 27.6258 24.0438 28.6989 24.0438C29.7721 24.0438 30.8141 23.6791 31.6575 23.0084C32.7678 22.1457 34.129 21.6779 35.5295 21.6779C36.93 21.6779 38.2912 22.1457 39.4014 23.0084C40.246 23.6791 41.289 24.0436 42.363 24.0436C43.4371 24.0436 44.4801 23.6791 45.3247 23.0084C45.7904 22.6588 46.2982 22.3704 46.8359 22.1503C48.5983 18.6736 51.6791 12.5845 51.6791 12.5845H42.5264L39.6257 14.8355H16.6847L14.382 12.5845H7.44226C7.44226 12.5777 7.44226 12.7842 7.44896 13.1199Z" stroke="#415056" stroke-miterlimit="10" stroke-linecap="round" stroke-linejoin="round"/>
<path d="M12.5573 4.99304H13.8081" stroke="#415056" stroke-miterlimit="10" stroke-linecap="round" stroke-linejoin="round"/>
<path d="M19.8445 14.6495V1.03247H47.0301V12.3721" stroke="#415056" stroke-miterlimit="10" stroke-linecap="round" stroke-linejoin="round"/>
<path d="M28.9249 14.5913V1.03247" stroke="#415056" stroke-miterlimit="10" stroke-linecap="round" stroke-linejoin="round"/>
<path d="M37.9477 1.10291V14.7132" stroke="#415056" stroke-miterlimit="10" stroke-linecap="round" stroke-linejoin="round"/>
<path d="M19.9014 10.2111H46.9731" stroke="#415056" stroke-miterlimit="10" stroke-linecap="round" stroke-linejoin="round"/>
<path d="M19.8431 5.65088H46.9082" stroke="#415056" stroke-miterlimit="10" stroke-linecap="round" stroke-linejoin="round"/>
<path d="M13.3093 17.9319H14.7322" stroke="#415056" stroke-miterlimit="10" stroke-linecap="round" stroke-linejoin="round"/>
<path d="M17.1051 17.9319H18.5347" stroke="#415056" stroke-miterlimit="10" stroke-linecap="round" stroke-linejoin="round"/>
<path d="M20.9078 17.9319H22.3307" stroke="#415056" stroke-miterlimit="10" stroke-linecap="round" stroke-linejoin="round"/>
<path d="M24.7098 17.9319H26.1327" stroke="#415056" stroke-miterlimit="10" stroke-linecap="round" stroke-linejoin="round"/>
<path d="M28.5124 17.9319H29.9353" stroke="#415056" stroke-miterlimit="10" stroke-linecap="round" stroke-linejoin="round"/>
<path d="M32.3083 17.9319H33.7312" stroke="#415056" stroke-miterlimit="10" stroke-linecap="round" stroke-linejoin="round"/>
<path d="M36.1103 17.9319H37.5332" stroke="#415056" stroke-miterlimit="10" stroke-linecap="round" stroke-linejoin="round"/>
<path d="M39.913 17.9319H41.3359" stroke="#415056" stroke-miterlimit="10" stroke-linecap="round" stroke-linejoin="round"/>
<path d="M43.7089 17.9319H45.1385" stroke="#415056" stroke-miterlimit="10" stroke-linecap="round" stroke-linejoin="round"/>
<path d="M56 24.0408C54.9224 24.0619 53.8727 23.6938 53.0397 23.0026C51.9316 22.1398 50.5722 21.672 49.1735 21.672C47.7747 21.672 46.4153 22.1398 45.3072 23.0026C44.4643 23.6731 43.4227 24.0377 42.35 24.0377C41.2772 24.0377 40.2356 23.6731 39.3927 23.0026C38.2846 22.1398 36.9252 21.672 35.5264 21.672C34.1277 21.672 32.7683 22.1398 31.6602 23.0026C30.8184 23.6732 29.7778 24.0379 28.7059 24.0379C27.6341 24.0379 26.5934 23.6732 25.7517 23.0026C24.6431 22.1408 23.2839 21.6736 21.8854 21.6736C20.4869 21.6736 19.1277 22.1408 18.0192 23.0026C17.189 23.6946 16.1408 24.063 15.0649 24.0408C13.9901 24.0623 12.9429 23.6964 12.1106 23.0086C11.0141 22.1245 9.64685 21.6547 8.2444 21.6801C6.84225 21.6566 5.47558 22.1262 4.37815 23.0086C3.54814 23.7006 2.50025 24.0689 1.42456 24.0468" stroke="#415056" stroke-miterlimit="10"/>
<path d="M16.6137 14.8302L16.4664 2.58704H10.5251L8.98499 12.4885" stroke="#415056" stroke-miterlimit="10" stroke-linecap="round" stroke-linejoin="round"/>
<path d="M55.585 25.8146C54.5074 25.8357 53.4577 25.4676 52.6247 24.7764C51.5166 23.9136 50.1572 23.4458 48.7584 23.4458C47.3597 23.4458 46.0003 23.9136 44.8922 24.7764C44.0492 25.4469 43.0077 25.8115 41.9349 25.8115C40.8622 25.8115 39.8206 25.4469 38.9776 24.7764C37.8695 23.9136 36.5101 23.4458 35.1114 23.4458C33.7127 23.4458 32.3533 23.9136 31.2451 24.7764C30.4034 25.447 29.3627 25.8117 28.2909 25.8117C27.219 25.8117 26.1784 25.447 25.3366 24.7764C24.2281 23.9146 22.8688 23.4474 21.4704 23.4474C20.0719 23.4474 18.7127 23.9146 17.6041 24.7764C16.774 25.4685 15.7258 25.8369 14.6499 25.8146C13.5751 25.8361 12.5278 25.4702 11.6956 24.7824C10.6001 23.8988 9.23409 23.4288 7.83271 23.4532C6.43056 23.4297 5.06389 23.8993 3.96646 24.7818C3.13566 25.4747 2.08644 25.8434 1.00952 25.8206" stroke="#415056" stroke-miterlimit="10"/>
<path d="M8.46064 29.9616C12.581 29.9616 15.9213 26.6261 15.9213 22.5115C15.9213 18.3969 12.581 15.0614 8.46064 15.0614C4.34024 15.0614 1 18.3969 1 22.5115C1 26.6261 4.34024 29.9616 8.46064 29.9616Z" fill="white"/>
<path d="M9.50727 30.9998C13.6277 30.9998 16.9679 27.6643 16.9679 23.5497C16.9679 19.4351 13.6277 16.0996 9.50727 16.0996C5.38687 16.0996 2.04663 19.4351 2.04663 23.5497C2.04663 27.6643 5.38687 30.9998 9.50727 30.9998Z" fill="#BE2428"/>
<path d="M10.1963 30.9998C13.661 30.9998 16.4697 28.1958 16.4697 24.7368C16.4697 21.2778 13.661 18.4738 10.1963 18.4738C6.73157 18.4738 3.92285 21.2778 3.92285 24.7368C3.92285 28.1958 6.73157 30.9998 10.1963 30.9998Z" fill="#A61E24"/>
<path d="M1.86181 19.0416C1.29785 20.1097 1.0041 21.3022 1.00673 22.5129C1.01252 23.4972 1.2101 24.4707 1.5882 25.3778C1.9663 26.2848 2.51751 27.1077 3.21033 27.7995C3.90315 28.4912 4.72402 29.0382 5.62604 29.4092C6.52806 29.7802 7.49355 29.9679 8.46737 29.9617C10.4336 29.9728 12.3238 29.1945 13.7226 27.7978C15.1214 26.4011 15.9144 24.5002 15.9273 22.5129C15.9219 21.5284 15.7246 20.5547 15.3467 19.6474C14.9688 18.74 14.4177 17.9168 13.7249 17.2248C13.0321 16.5328 12.2112 15.9856 11.3091 15.6144C10.407 15.2432 9.44136 15.0553 8.46737 15.0614C6.64484 15.057 4.88321 15.7243 3.51236 16.9382" stroke="#415055" stroke-linecap="round"/>
<path d="M6.56506 22.6665L7.93707 24.2082L10.7454 21.2601" stroke="white" stroke-width="1.44" stroke-miterlimit="10" stroke-linecap="round" stroke-linejoin="round"/>
</svg>
