<svg width="201" height="29" fill="none" xmlns="http://www.w3.org/2000/svg"><path d="M41.54 25.975a11.254 11.254 0 0 1-4.85-3.856 9.718 9.718 0 0 1-1.731-5.67V1.145h8.728V16.45a4.38 4.38 0 0 0 4.37 4.605 4.373 4.373 0 0 0 4.105-2.861c.206-.558.296-1.15.265-1.744V1.145h8.763V16.45a9.718 9.718 0 0 1-1.731 5.67 11.277 11.277 0 0 1-4.839 3.856 16.276 16.276 0 0 1-13.044 0M72.492 25.62a13.367 13.367 0 0 1-5.17-4.746 12.187 12.187 0 0 1-1.898-6.655 12.46 12.46 0 0 1 1.838-6.703 12.809 12.809 0 0 1 5.04-4.686A15.174 15.174 0 0 1 79.5 1.134c1.428.002 2.852.161 4.245.474 1.243.288 2.435.764 3.534 1.412L86.2 8.667a16.36 16.36 0 0 0-5.194-.985 6.721 6.721 0 0 0-4.921 1.697 6.511 6.511 0 0 0-1.72 4.864 6.35 6.35 0 0 0 1.815 4.828 7.114 7.114 0 0 0 5.087 1.744 11.99 11.99 0 0 0 2.372-.214 18.832 18.832 0 0 0 2.632-.806l1.186 5.753a15.814 15.814 0 0 1-7.601 1.863 15.115 15.115 0 0 1-7.258-1.732M91.714 1.193h18.488v5.505h-9.795v5.184h8.811v4.567h-8.811v5.362h9.795v5.505H91.714V1.193Z" fill="#DA291C"/><path d="m21.867 1.145 4.364 2.919v5.813l4.364-8.732h-8.728Z" fill="#101820"/><path d="m13.116 27.363 10.933-.012L10.957 1.145H0l13.116 26.218Z" fill="#DA291C"/><path d="M125.155 8.958a.414.414 0 0 1-.392-.273l-2.454-5.658a.556.556 0 0 1 0-.475.357.357 0 0 1 .355-.178.378.378 0 0 1 .392.261l2.17 5.137h-.095l2.194-5.16.154-.214h.237a.368.368 0 0 1 .356.178.417.417 0 0 1 0 .391l-2.478 5.695-.155.201-.284.095ZM130.23 8.958c-.414.003-.821-.1-1.185-.296a2.14 2.14 0 0 1-.842-.819c-.21-.36-.317-.77-.309-1.186-.003-.413.095-.82.285-1.186.189-.342.468-.625.806-.819.36-.209.771-.311 1.186-.297.395-.011.785.087 1.127.285.311.194.558.474.711.807.176.37.262.777.249 1.186a.345.345 0 0 1-.107.261.374.374 0 0 1-.272.107h-3.451v-.664h3.356l-.344.225a1.926 1.926 0 0 0-.166-.747 1.184 1.184 0 0 0-1.186-.712 1.587 1.587 0 0 0-.806.201c-.227.14-.408.342-.522.582a1.797 1.797 0 0 0-.178.818c-.004.291.07.578.213.83.141.238.341.434.582.57.259.138.548.207.842.202.182.003.363-.03.533-.095.16-.046.309-.122.439-.225l.273-.095.249.095.154.272-.131.261a2.23 2.23 0 0 1-.711.368c-.259.091-.532.14-.806.143M137.144 8.958a.42.42 0 0 1-.308-.119.47.47 0 0 1-.119-.308V6.443a1.46 1.46 0 0 0-.178-.771 1.18 1.18 0 0 0-.462-.451 1.437 1.437 0 0 0-.688-.154 1.415 1.415 0 0 0-.641.142c-.181.09-.336.225-.45.391a.918.918 0 0 0-.166.546h-.522a1.828 1.828 0 0 1 .249-.949c.173-.275.414-.5.7-.652.305-.169.648-.254.996-.25.36-.007.715.078 1.032.25.307.164.558.416.723.723.188.366.278.775.261 1.187v2.064a.423.423 0 0 1-.119.308.402.402 0 0 1-.308.119v.012Zm-3.439-.012a.4.4 0 0 1-.31-.118.42.42 0 0 1-.092-.142.415.415 0 0 1-.025-.167v-3.75a.398.398 0 0 1 .26-.399.42.42 0 0 1 .167-.027.4.4 0 0 1 .401.26c.021.053.029.11.026.167v3.737a.43.43 0 0 1-.027.166.423.423 0 0 1-.233.236.39.39 0 0 1-.167.025M140.642 8.958a1.342 1.342 0 0 1-.747-.213 1.48 1.48 0 0 1-.533-.581 1.747 1.747 0 0 1-.19-.83V3.3a.39.39 0 0 1 .118-.297.377.377 0 0 1 .297-.119.403.403 0 0 1 .308.119.441.441 0 0 1 .107.297v3.998a.91.91 0 0 0 .19.569.575.575 0 0 0 .45.225h.285l.261.107c.072.087.11.196.107.309a.358.358 0 0 1-.143.297.52.52 0 0 1-.355.118l-.155.035Zm-1.861-3.69a.402.402 0 0 1-.285-.106l-.107-.249a.331.331 0 0 1 .107-.261.402.402 0 0 1 .285-.107h1.932a.439.439 0 0 1 .297.107.331.331 0 0 1 .107.261l-.107.25a.439.439 0 0 1-.297.106h-1.932ZM146.299 8.958a.407.407 0 0 1-.31-.117.398.398 0 0 1-.117-.31V7.226l.166-.89.688.297v1.874a.412.412 0 0 1-.119.309.472.472 0 0 1-.308.118v.024Zm-1.874-.76c.267.009.531-.061.759-.2.226-.134.411-.327.534-.558a1.82 1.82 0 0 0 0-1.614 1.422 1.422 0 0 0-.534-.557 1.376 1.376 0 0 0-.759-.202 1.4 1.4 0 0 0-.759.202 1.42 1.42 0 0 0-.533.557 1.708 1.708 0 0 0 0 1.614c.123.231.307.424.533.557a1.4 1.4 0 0 0 .759.202Zm-.166.76c-.39.01-.774-.098-1.103-.308a2.151 2.151 0 0 1-.759-.83 2.38 2.38 0 0 1-.284-1.187 2.37 2.37 0 0 1 .308-1.186c.194-.349.482-.637.83-.83a2.374 2.374 0 0 1 2.372 0c.342.198.625.484.818.83.211.359.318.77.308 1.186h-.32a2.38 2.38 0 0 1-.284 1.186c-.176.343-.443.63-.771.83a1.92 1.92 0 0 1-1.091.31M151.872 8.958a.403.403 0 0 1-.399-.26.412.412 0 0 1-.028-.167V6.443a1.45 1.45 0 0 0-.178-.771 1.086 1.086 0 0 0-.474-.45 1.434 1.434 0 0 0-.688-.155 1.397 1.397 0 0 0-.628.142 1.117 1.117 0 0 0-.451.392.872.872 0 0 0-.178.545h-.522a1.737 1.737 0 0 1 .261-.949c.173-.274.414-.5.7-.652.304-.17.648-.256.996-.25.359-.004.714.082 1.032.25.304.168.555.42.723.724.182.368.272.775.261 1.186v2.064a.473.473 0 0 1-.118.309.42.42 0 0 1-.309.118v.012Zm-3.439-.012a.403.403 0 0 1-.399-.26.412.412 0 0 1-.028-.167V4.77a.398.398 0 0 1 .26-.4c.053-.021.11-.03.167-.027a.39.39 0 0 1 .415.427v3.737a.467.467 0 0 1-.106.309.42.42 0 0 1-.309.118M154.22 8.958a.415.415 0 0 1-.308-.119.45.45 0 0 1-.118-.308V4.77a.425.425 0 0 1 .118-.308.42.42 0 0 1 .308-.12.407.407 0 0 1 .31.117.405.405 0 0 1 .117.31v3.725a.402.402 0 0 1-.118.308.397.397 0 0 1-.309.12v.035Zm0-5.362a.582.582 0 0 1-.391-.166.512.512 0 0 1-.142-.404.533.533 0 0 1 .155-.393.55.55 0 0 1 .39-.164.5.5 0 0 1 .392.166.538.538 0 0 1 .166.391.526.526 0 0 1-.166.38.535.535 0 0 1-.392.166M157.327 8.958a1.043 1.043 0 0 1-.652-.202 1.28 1.28 0 0 1-.439-.545 1.908 1.908 0 0 1-.166-.795V2.8c0-.11.042-.217.119-.297a.402.402 0 0 1 .308-.118.391.391 0 0 1 .297.118.386.386 0 0 1 .118.297v4.58a.986.986 0 0 0 .119.51.341.341 0 0 0 .296.202h.214a.38.38 0 0 1 .272.106c.072.086.11.196.107.308a.359.359 0 0 1-.166.297.628.628 0 0 1-.403.119l-.024.035ZM159.841 8.958a1.043 1.043 0 0 1-.652-.202 1.185 1.185 0 0 1-.439-.545 1.908 1.908 0 0 1-.166-.795V2.8a.42.42 0 0 1 .028-.16.413.413 0 0 1 .226-.227.407.407 0 0 1 .161-.028.403.403 0 0 1 .427.415v4.58a.986.986 0 0 0 .119.51.341.341 0 0 0 .296.202h.214a.38.38 0 0 1 .272.106c.063.09.096.198.095.308a.34.34 0 0 1-.154.297.64.64 0 0 1-.415.119l-.012.035ZM164.964 8.958a.472.472 0 0 1-.308-.118.412.412 0 0 1-.119-.308V7.225l.166-.89.688.297v1.874a.423.423 0 0 1-.119.308.472.472 0 0 1-.308.12v.023Zm-1.874-.76c.268.01.532-.06.759-.2.226-.134.411-.327.534-.558a1.82 1.82 0 0 0 0-1.614 1.422 1.422 0 0 0-.534-.557 1.35 1.35 0 0 0-.759-.202 1.395 1.395 0 0 0-.758.202 1.422 1.422 0 0 0-.534.557 1.707 1.707 0 0 0 0 1.614c.123.231.308.424.534.557.228.139.491.209.758.202Zm-.166.76c-.39.01-.774-.098-1.102-.308a2.136 2.136 0 0 1-.759-.83 2.37 2.37 0 0 1-.285-1.187 2.38 2.38 0 0 1 .308-1.186c.195-.349.482-.637.83-.83a2.374 2.374 0 0 1 2.372 0c.342.198.625.484.818.83.211.359.318.77.309 1.186h-.32a2.37 2.37 0 0 1-.285 1.186c-.176.343-.442.63-.771.83-.324.211-.704.318-1.091.31M171.937 1.662a.425.425 0 0 1-.427-.427.366.366 0 0 1 .024-.154.366.366 0 0 1 .083-.13l.818-.82a.43.43 0 0 1 .617 0 .45.45 0 0 1 .118.31v.153l-.083.143-.818.806a.382.382 0 0 1-.296.119h-.036Zm.036 7.39a3.21 3.21 0 0 1-1.423-.296 2.241 2.241 0 0 1-.961-.818 2.124 2.124 0 0 1-.344-1.187V2.837a.403.403 0 0 1 .427-.427.43.43 0 0 1 .32.118c.04.04.071.089.092.142a.43.43 0 0 1 .027.167V6.75c-.003.287.079.568.237.807.171.233.4.417.664.534.3.142.629.21.961.202.324.01.645-.06.936-.202.258-.118.479-.302.641-.534.154-.24.233-.521.225-.807V2.837a.42.42 0 0 1 .131-.309.407.407 0 0 1 .308-.119.39.39 0 0 1 .308.12c.04.04.071.088.092.141a.43.43 0 0 1 .027.167V6.75c0 .42-.119.832-.344 1.187a2.17 2.17 0 0 1-.937.818 3.058 3.058 0 0 1-1.387.297ZM180.06 8.958a.378.378 0 0 1-.296-.119.438.438 0 0 1-.131-.308V6.443a1.573 1.573 0 0 0-.166-.771 1.091 1.091 0 0 0-.474-.45 1.567 1.567 0 0 0-1.328 0c-.181.089-.336.224-.451.39a.932.932 0 0 0-.166.546h-.522a1.828 1.828 0 0 1 .249-.949 1.95 1.95 0 0 1 .7-.652c.305-.168.648-.254.996-.25.36-.007.715.079 1.032.25.307.164.559.416.723.723.189.366.279.775.261 1.187V8.53a.411.411 0 0 1-.26.4.403.403 0 0 1-.167.027Zm-3.439 0a.4.4 0 0 1-.401-.26.399.399 0 0 1-.026-.167V4.77a.398.398 0 0 1 .261-.4.412.412 0 0 1 .166-.028.407.407 0 0 1 .31.118.398.398 0 0 1 .117.31v3.736a.43.43 0 0 1-.027.167.437.437 0 0 1-.091.142.392.392 0 0 1-.309.118M182.42 8.958a.412.412 0 0 1-.4-.26.397.397 0 0 1-.027-.167v-3.76a.398.398 0 0 1 .261-.4.412.412 0 0 1 .166-.028.403.403 0 0 1 .309.119.398.398 0 0 1 .118.308v3.725a.398.398 0 0 1-.259.402.407.407 0 0 1-.168.025v.036Zm0-5.362a.537.537 0 0 1-.391-.166.526.526 0 0 1 0-.771.495.495 0 0 1 .391-.166.513.513 0 0 1 .392.166.535.535 0 0 1 .154.391.518.518 0 0 1-.154.38.56.56 0 0 1-.392.166ZM186.511 8.958a2.22 2.22 0 0 1-1.186-.308 2.155 2.155 0 0 1-.83-.83 2.375 2.375 0 0 1-.296-1.187 2.456 2.456 0 0 1 .296-1.186c.189-.345.468-.632.807-.83a2.277 2.277 0 0 1 1.186-.297 2.05 2.05 0 0 1 .901.19c.285.132.536.326.735.569l.083.273-.178.249-.261.06-.261-.155a1.36 1.36 0 0 0-1.019-.427 1.444 1.444 0 0 0-.759.19 1.411 1.411 0 0 0-.51.545c-.123.26-.184.544-.178.83-.006.28.055.557.178.808.123.231.308.424.533.557.232.143.5.213.771.202.177.003.353-.021.522-.071.146-.048.282-.12.403-.214l.273-.13.249.083.166.26-.107.273a2.146 2.146 0 0 1-1.506.558M193.425 8.958a.45.45 0 0 1-.308-.118.423.423 0 0 1-.092-.142.43.43 0 0 1-.027-.167V7.226l.154-.89.7.297v1.874a.403.403 0 0 1-.427.427v.024Zm-1.874-.76c.267.009.531-.061.759-.2.225-.131.407-.325.522-.558a1.72 1.72 0 0 0 0-1.614 1.318 1.318 0 0 0-.522-.557 1.53 1.53 0 0 0-1.518 0c-.225.133-.41.326-.533.557a1.708 1.708 0 0 0 0 1.614c.123.231.308.424.533.557.228.14.492.21.759.202Zm-.166.76a1.933 1.933 0 0 1-1.103-.308 2.176 2.176 0 0 1-.77-.83 2.532 2.532 0 0 1-.273-1.187c-.01-.416.097-.827.308-1.186.194-.346.476-.632.818-.83a2.374 2.374 0 0 1 2.372 0c.342.198.625.484.818.83.205.361.312.77.309 1.186h-.332c.006.412-.087.819-.273 1.186-.179.34-.445.627-.771.83-.324.211-.704.318-1.091.31M125.439 18.781a3.218 3.218 0 0 1-1.268-.249 3.487 3.487 0 0 1-1.032-.712 3.375 3.375 0 0 1-.688-1.067 3.772 3.772 0 0 1-.249-1.329 3.73 3.73 0 0 1 .249-1.317c.157-.394.391-.753.688-1.056.294-.305.644-.55 1.032-.723a3.22 3.22 0 0 1 1.268-.25 2.88 2.88 0 0 1 2.04.712l.107.107v.237c0 .05-.011.099-.031.144a.331.331 0 0 1-.088.117.391.391 0 0 1-.272.119.388.388 0 0 1-.309-.107 2.514 2.514 0 0 0-.64-.403 2.267 2.267 0 0 0-.878-.142c-.319-.001-.635.068-.925.201-.289.132-.55.317-.77.546a2.702 2.702 0 0 0 0 3.63c.219.232.481.422.77.558.291.13.607.194.925.19a2.27 2.27 0 0 0 .807-.143c.262-.106.509-.245.735-.415l.296-.095.249.119c.036.04.062.087.079.138.016.051.022.105.016.158v.155l-.106.154c-.29.23-.614.415-.961.545-.351.12-.72.18-1.091.178M130.681 17.975c.267.009.531-.061.759-.202.225-.128.41-.318.534-.546.126-.254.191-.534.189-.818a1.844 1.844 0 0 0-.189-.819 1.396 1.396 0 0 0-.534-.546 1.354 1.354 0 0 0-.759-.201 1.457 1.457 0 0 0-1.305.747 1.7 1.7 0 0 0-.189.819c-.008.284.058.566.189.818a1.464 1.464 0 0 0 1.305.748Zm0 .759a2.374 2.374 0 0 1-1.186-.297 2.088 2.088 0 0 1-.818-.818 2.616 2.616 0 0 1 0-2.373c.19-.345.474-.628.818-.819a2.55 2.55 0 0 1 2.372 0c.339.197.621.48.818.819.194.365.296.773.297 1.186.006.415-.096.824-.297 1.187a2.138 2.138 0 0 1-.806.818c-.363.201-.772.303-1.186.297M140.263 18.71a.407.407 0 0 1-.31-.117.398.398 0 0 1-.117-.31V15.91a1.027 1.027 0 0 0-.261-.783.878.878 0 0 0-.676-.26.927.927 0 0 0-.711.308 1.056 1.056 0 0 0-.285.77h-.688c-.01-.334.068-.665.225-.96a1.6 1.6 0 0 1 .665-.652c.294-.16.625-.242.96-.238.298-.005.593.069.854.214.244.148.441.362.569.617.141.308.21.645.202.984v2.373a.413.413 0 0 1-.427.427Zm-2.787 0a.472.472 0 0 1-.308-.119.424.424 0 0 1-.092-.142.43.43 0 0 1-.027-.166V15.91a1.01 1.01 0 0 0-.261-.783.917.917 0 0 0-.676-.26.95.95 0 0 0-.723.308 1.072 1.072 0 0 0-.285.77h-.522a2.064 2.064 0 0 1 .214-.96c.132-.273.343-.5.605-.652.264-.16.568-.243.877-.238.295-.007.586.067.842.214.251.143.453.358.581.617.141.308.21.645.202.984v2.373a.43.43 0 0 1-.027.166.424.424 0 0 1-.092.142.426.426 0 0 1-.308.119Zm-2.799 0a.474.474 0 0 1-.308-.119.413.413 0 0 1-.119-.308v-3.725a.432.432 0 0 1 .119-.32.474.474 0 0 1 .308-.12.407.407 0 0 1 .406.269.398.398 0 0 1 .021.17v3.726a.412.412 0 0 1-.118.308.43.43 0 0 1-.309.119ZM144.259 18.733c-.414.002-.822-.1-1.186-.296a2.148 2.148 0 0 1-.842-.819 2.306 2.306 0 0 1-.308-1.186c-.003-.413.094-.82.285-1.186a2.13 2.13 0 0 1 .806-.82 2.205 2.205 0 0 1 1.186-.296c.395-.011.785.087 1.126.285.311.194.559.474.712.807.176.37.262.776.249 1.186a.345.345 0 0 1-.107.261.385.385 0 0 1-.273.107h-3.379v-.7h3.356l-.344.225a1.926 1.926 0 0 0-.166-.747 1.304 1.304 0 0 0-.463-.522 1.184 1.184 0 0 0-.711-.19 1.593 1.593 0 0 0-.807.202c-.226.14-.407.341-.521.581a1.797 1.797 0 0 0-.178.819c-.004.29.07.577.213.83.141.237.341.434.581.57a1.73 1.73 0 0 0 1.815-.12l.272-.094.249.095.155.273-.131.26a2.23 2.23 0 0 1-.711.369c-.26.09-.532.139-.807.142M147.757 15.839a1.649 1.649 0 0 1 .249-.902c.16-.27.389-.49.664-.64a1.83 1.83 0 0 1 .914-.226c.262-.02.525.034.759.155.154.118.225.249.177.391l-.094.178-.155.083h-.201a2.456 2.456 0 0 0-.973 0 1.319 1.319 0 0 0-.676.344.921.921 0 0 0-.237.64l-.427-.023Zm0 2.86a.428.428 0 0 1-.308-.108.402.402 0 0 1-.107-.308v-3.749a.368.368 0 0 1 .415-.415.438.438 0 0 1 .321.107.4.4 0 0 1 .106.308v3.749a.425.425 0 0 1-.106.308.443.443 0 0 1-.321.107ZM153.118 18.734a2.368 2.368 0 0 1-1.186-.309 2.207 2.207 0 0 1-.819-.83 2.375 2.375 0 0 1-.296-1.187 2.375 2.375 0 0 1 .296-1.186c.186-.347.465-.635.807-.83.359-.208.77-.311 1.186-.297a2.06 2.06 0 0 1 1.636.76l.083.272-.19.25-.249.059-.261-.155a1.36 1.36 0 0 0-1.019-.427 1.443 1.443 0 0 0-.759.19 1.411 1.411 0 0 0-.51.546 1.853 1.853 0 0 0-.19.83c-.002.28.063.557.19.807.123.231.308.424.533.558.232.142.5.212.771.201a1.6 1.6 0 0 0 .51-.071c.15-.047.29-.12.415-.213l.273-.131.249.083.166.261-.107.273a2.146 2.146 0 0 1-1.506.557M156.58 18.698a.392.392 0 0 1-.296-.119.42.42 0 0 1-.131-.308v-3.725a.427.427 0 0 1 .427-.427.403.403 0 0 1 .439.427v3.725a.474.474 0 0 1-.119.308.42.42 0 0 1-.32.119Zm0-5.327a.53.53 0 0 1-.379-.166.489.489 0 0 1-.166-.391.566.566 0 0 1 .545-.546.494.494 0 0 1 .391.166.49.49 0 0 1 .166.38.493.493 0 0 1-.166.391.532.532 0 0 1-.391.166ZM160.683 17.974a1.41 1.41 0 0 0 .771-.202 1.37 1.37 0 0 0 .534-.51c.131-.252.197-.534.189-.818a1.699 1.699 0 0 0-.189-.819 1.37 1.37 0 0 0-.522-.546c-.232-.14-.5-.21-.771-.201a1.458 1.458 0 0 0-1.304.747 1.689 1.689 0 0 0-.19.819c-.008.284.058.566.19.818a1.456 1.456 0 0 0 1.304.748l-.012-.036Zm.012.795a2.374 2.374 0 0 1-1.186-.297 2.257 2.257 0 0 1-.818-.818 2.616 2.616 0 0 1 0-2.373c.197-.34.479-.622.818-.818a2.551 2.551 0 0 1 2.372 0c.339.197.621.479.818.818a2.616 2.616 0 0 1 0 2.373 2.138 2.138 0 0 1-.806.818c-.363.201-.772.303-1.186.297M167.229 18.698a.415.415 0 0 1-.308-.119.461.461 0 0 1-.13-.32v-5.67a.453.453 0 0 1 .438-.44h3.783a.425.425 0 0 1 .309.12.391.391 0 0 1 .118.296.357.357 0 0 1-.118.285.428.428 0 0 1-.309.106h-3.344v2.04h2.372a.427.427 0 0 1 .32.12.428.428 0 0 1 0 .569.426.426 0 0 1-.32.118h-2.372v2.088h3.344a.39.39 0 0 1 .309.12.357.357 0 0 1 .118.284.391.391 0 0 1-.118.297.429.429 0 0 1-.309.106h-3.783ZM174.404 16.55l-.558-.474 1.34-1.791.143-.119h.166a.368.368 0 0 1 .284.107c.058.08.087.175.083.273a.52.52 0 0 1-.118.308l-1.34 1.697Zm-2.064 2.148a.318.318 0 0 1-.261-.107l-.106-.249.118-.308 1.423-1.78.463.64-1.316 1.673a.408.408 0 0 1-.297.13h-.024Zm3.226 0h-.166l-.142-.107-1.459-1.768-.308-.296-1.459-1.72a.594.594 0 0 1-.119-.297l.083-.26a.377.377 0 0 1 .285-.108.4.4 0 0 1 .32.143l1.423 1.708.226.202 1.577 1.886.118.297-.106.249a.428.428 0 0 1-.273.095M178.649 18.698a1.375 1.375 0 0 1-.747-.214 1.484 1.484 0 0 1-.534-.581 1.735 1.735 0 0 1-.189-.83v-3.998a.402.402 0 0 1 .415-.416.405.405 0 0 1 .308.119.43.43 0 0 1 .119.296v3.998a.85.85 0 0 0 .177.558.578.578 0 0 0 .451.237h.285l.261.107a.467.467 0 0 1 .106.308.352.352 0 0 1-.142.297.523.523 0 0 1-.356.119h-.154Zm-1.862-3.69a.425.425 0 0 1-.284-.106l-.107-.25a.33.33 0 0 1 .107-.26.425.425 0 0 1 .284-.107h1.945a.405.405 0 0 1 .285.106.324.324 0 0 1 .082.119.316.316 0 0 1 .024.142l-.106.25a.406.406 0 0 1-.285.106h-1.945ZM182.503 18.733a2.515 2.515 0 0 1-1.245-.296 2.231 2.231 0 0 1-.842-.819 2.577 2.577 0 0 1 0-2.372c.185-.341.46-.624.795-.819a2.276 2.276 0 0 1 1.186-.297c.39-.012.777.087 1.114.285.314.194.565.474.724.807.176.37.261.777.249 1.186a.346.346 0 0 1-.107.261.404.404 0 0 1-.285.107h-3.368v-.7h3.345l-.344.225a1.74 1.74 0 0 0-.166-.747 1.382 1.382 0 0 0-.451-.522 1.279 1.279 0 0 0-.711-.19 1.614 1.614 0 0 0-.819.202 1.28 1.28 0 0 0-.51.581 1.823 1.823 0 0 0-.178.819c-.002.289.068.574.202.83.141.238.341.434.581.57.264.136.557.205.854.201.178-.003.354-.035.522-.095.158-.048.307-.124.438-.225l.273-.095.261.095.154.273-.142.26c-.21.163-.447.287-.7.369-.259.09-.531.138-.806.142M185.954 15.839a1.64 1.64 0 0 1 .249-.902c.166-.264.394-.484.664-.64.284-.154.603-.232.925-.226.259-.019.517.035.747.154a.352.352 0 0 1 .19.392l-.095.178-.166.083h-.201a2.37 2.37 0 0 0-.961 0 1.318 1.318 0 0 0-.676.344.87.87 0 0 0-.249.64l-.427-.023Zm0 2.859a.425.425 0 0 1-.308-.107.403.403 0 0 1-.107-.309v-3.748a.368.368 0 0 1 .415-.415.369.369 0 0 1 .415.415v3.748a.426.426 0 0 1-.107.309.398.398 0 0 1-.308.107ZM190.128 18.698a.405.405 0 0 1-.427-.427v-3.725a.383.383 0 0 1 .026-.168.384.384 0 0 1 .093-.14.463.463 0 0 1 .617 0 .424.424 0 0 1 .118.308v3.725a.473.473 0 0 1-.118.308.407.407 0 0 1-.309.119Zm0-5.327a.566.566 0 0 1-.557-.557.526.526 0 0 1 .166-.38.496.496 0 0 1 .391-.166.535.535 0 0 1 .392.166.518.518 0 0 1 .154.38.53.53 0 0 1-.154.391.583.583 0 0 1-.392.166ZM194.219 17.974c.271.01.539-.06.771-.202a1.29 1.29 0 0 0 .522-.545c.132-.253.197-.535.19-.82a1.7 1.7 0 0 0-.19-.818 1.291 1.291 0 0 0-.522-.545 1.39 1.39 0 0 0-.771-.202 1.407 1.407 0 0 0-.77.202c-.222.129-.403.318-.522.545a1.7 1.7 0 0 0-.19.819c-.007.284.058.566.19.819.119.227.3.416.522.545.232.14.499.21.77.202Zm0 .76a2.367 2.367 0 0 1-1.185-.298 2.252 2.252 0 0 1-.819-.818 2.628 2.628 0 0 1 0-2.373c.197-.34.479-.621.819-.818.362-.201.771-.303 1.185-.297.415-.006.824.096 1.186.297.339.194.618.477.807.818.2.363.303.772.296 1.187.004.412-.094.82-.285 1.186-.196.34-.478.622-.818.819-.362.2-.771.303-1.186.296ZM198.204 15.839a1.64 1.64 0 0 1 .249-.902 1.792 1.792 0 0 1 1.589-.866c.259-.019.517.035.747.154a.357.357 0 0 1 .19.392l-.095.178-.166.083h-.202a2.366 2.366 0 0 0-.96 0 1.318 1.318 0 0 0-.676.344.87.87 0 0 0-.249.64l-.427-.023Zm0 2.859a.425.425 0 0 1-.308-.107.39.39 0 0 1-.086-.143.388.388 0 0 1-.021-.166v-3.748a.367.367 0 0 1 .415-.416.439.439 0 0 1 .32.107.446.446 0 0 1 .095.309v3.748a.475.475 0 0 1-.095.309.43.43 0 0 1-.32.107ZM123.115 25.4h1.186c.24.003.476-.054.688-.166.187-.113.342-.273.45-.462.121-.205.183-.44.178-.677a1.362 1.362 0 0 0-.178-.7 1.27 1.27 0 0 0-.45-.486 1.318 1.318 0 0 0-.688-.178h-1.186v2.67Zm-.439 3.073a.424.424 0 0 1-.308-.13.42.42 0 0 1-.13-.308v-5.672a.42.42 0 0 1 .13-.308.43.43 0 0 1 .308-.13h1.672c.391-.01.777.089 1.115.284.322.174.586.438.759.76.189.344.283.733.273 1.126.011.382-.083.76-.273 1.092a1.841 1.841 0 0 1-.759.747c-.342.186-.726.28-1.115.273h-1.185v1.827a.456.456 0 0 1-.119.308.442.442 0 0 1-.32.13M129.365 28.509a2.642 2.642 0 0 1-1.245-.297 2.225 2.225 0 0 1-.842-.818 2.566 2.566 0 0 1 0-2.373c.184-.34.459-.624.794-.819a2.276 2.276 0 0 1 1.186-.296c.414-.022.826.077 1.186.285.304.195.55.47.711.794.173.371.258.777.249 1.187a.345.345 0 0 1-.106.26.388.388 0 0 1-.285.107h-3.415v-.735h3.344l-.344.237a1.74 1.74 0 0 0-.166-.747 1.183 1.183 0 0 0-.451-.522 1.184 1.184 0 0 0-.711-.19 1.61 1.61 0 0 0-.818.202c-.223.14-.401.342-.51.581a1.797 1.797 0 0 0-.178.819c-.006.287.068.57.213.818.13.242.328.44.569.57a1.672 1.672 0 0 0 1.376.118c.161-.05.313-.127.451-.225l.272-.095.249.095.155.273-.143.26a2.605 2.605 0 0 1-1.506.51M132.816 25.567c-.007-.319.08-.632.249-.902a1.81 1.81 0 0 1 .664-.64c.283-.156.601-.238.925-.238.259-.015.518.042.747.166a.344.344 0 0 1 .19.392l-.095.178-.166.083h-.202a2.374 2.374 0 0 0-.961 0 1.312 1.312 0 0 0-.675.344.87.87 0 0 0-.25.64l-.426-.023Zm0 2.859a.43.43 0 0 1-.309-.107.404.404 0 0 1-.106-.308v-3.702a.367.367 0 0 1 .415-.415.365.365 0 0 1 .311.104.368.368 0 0 1 .104.311v3.749a.43.43 0 0 1-.107.308.39.39 0 0 1-.308.107M140.251 28.474a.384.384 0 0 1-.297-.12.425.425 0 0 1-.13-.307v-3.738a.39.39 0 0 1 .13-.308.383.383 0 0 1 .297-.119.425.425 0 0 1 .32.12.43.43 0 0 1 .107.308v3.737a.463.463 0 0 1-.107.308.425.425 0 0 1-.32.119Zm-1.637-5.28a.4.4 0 0 1-.401-.26.416.416 0 0 1-.026-.167.432.432 0 0 1 .095-.284l.83-.819a.41.41 0 0 1 .297-.13.395.395 0 0 1 .308.13.412.412 0 0 1 .119.308v.155l-.095.142-.807.807a.386.386 0 0 1-.296.118h-.024Zm-.189 5.35a2.143 2.143 0 0 1-1.032-.248 1.858 1.858 0 0 1-.724-.724 2.525 2.525 0 0 1-.26-1.186V24.31a.398.398 0 0 1 .259-.402.403.403 0 0 1 .167-.026.45.45 0 0 1 .309.12.407.407 0 0 1 .118.308v2.064c-.009.268.052.534.178.77.109.196.274.354.475.452.211.1.442.153.676.154.225.005.449-.044.652-.142.177-.092.327-.227.439-.392a.909.909 0 0 0 .166-.546h.533c.007.331-.084.657-.261.938-.164.28-.402.51-.687.664-.309.17-.656.255-1.008.249" fill="#272724"/></svg>